<?xml version="1.0" encoding="utf-8"?>
<svg version="1.1" x="0px" y="0px" width="720px" height="503.999px" viewBox="0 0 720 503.999" enable-background="new 0 0 720 503.999" xmlns="http://www.w3.org/2000/svg">
  <g id="Layer_1">
    <rect fill="#FFFFFF" width="720" height="503.999"/>
  </g>
  <g id="Layer_2">
    <g>
      <path d="M563.062,263H511.9c-38.415-51.891,20.939-53.94,28.101-54h23.702c27.614,0,50-22.386,50-50v-15 c0-27.614-22.386-50-50-50h-201c-23.68,0-43.5,16.467-48.672,38.571l-0.016,0.005c0,0,0.003,0.012,0.007,0.029 c-0.854,3.662-1.32,7.473-1.32,11.395v15c0,0.382,0.021,0.759,0.029,1.139c-2.98,8.716-9.15,17.678-21.329,23.861h-25.77 c-25.367,0-45.93,17.52-45.93,39.131v11.738c0,21.611,20.563,39.131,45.93,39.131h28.208 c-12.321,8.373-20.138,20.786-20.138,34.652v13.695c0,3.382,0.479,6.675,1.359,9.847l-0.015-0.014c0,0,0.011,0.024,0.028,0.06 c0.447,1.603,1.002,3.172,1.656,4.706c1.614,6,2.667,16.386-6.087,23.554h-78.787c-29.028,0-52.56,13.724-52.56,30.652v9.195 c0,16.929,23.531,30.652,52.56,30.652h211.286c29.028,0,52.56-13.724,52.56-30.652v-9.195c0-3.553-1.048-6.96-2.954-10.133 c1.923-7.497,7.657-11.222,13.672-13.02h96.641c31.835,0,57.642-20.439,57.642-45.652v-13.695 C620.703,283.439,594.896,263,563.062,263z" style="paint-order: fill; fill: rgb(251, 248, 249);"/>
      <path d="M584.5,82.125c0,3.245-3.864,5.875-8.629,5.875H448.629c-4.767,0-8.629-2.63-8.629-5.875l0,0 c0-3.245,3.862-5.875,8.629-5.875h127.242C580.636,76.25,584.5,78.88,584.5,82.125L584.5,82.125z" style="fill: rgb(247, 239, 237);"/>
      <path fill="#F5EDEB" d="M338,444.5c0,1.933-1.567,3.5-3.5,3.5h-176c-1.933,0-3.5-1.567-3.5-3.5l0,0c0-1.933,1.567-3.5,3.5-3.5h176 C336.433,441,338,442.567,338,444.5L338,444.5z"/>
      <path fill="#F5EDEB" d="M582.923,448c0,1.933-1.042,3.5-2.325,3.5H463.652c-1.284,0-2.325-1.567-2.325-3.5l0,0 c0-1.933,1.041-3.5,2.325-3.5h116.945C581.881,444.5,582.923,446.067,582.923,448L582.923,448z"/>
      <path opacity="0.5" fill="#FFFFFF" d="M467.759,108.75c0,1.51-1.042,2.734-2.325,2.734H348.488c-1.284,0-2.325-1.225-2.325-2.734 l0,0c0-1.51,1.041-2.734,2.325-2.734h116.945C466.717,106.016,467.759,107.24,467.759,108.75L467.759,108.75z"/>
      <path fill="#F5EDEB" d="M649.097,448c0,1.933-0.419,3.5-0.935,3.5h-46.99c-0.517,0-0.935-1.567-0.935-3.5l0,0 c0-1.933,0.418-3.5,0.935-3.5h46.99C648.678,444.5,649.097,446.067,649.097,448L649.097,448z"/>
      <path opacity="0.5" fill="#FFFFFF" d="M455.93,122.75c0,1.51-0.419,2.734-0.935,2.734h-46.99c-0.517,0-0.935-1.225-0.935-2.734 l0,0c0-1.51,0.418-2.734,0.935-2.734h46.99C455.511,120.016,455.93,121.24,455.93,122.75L455.93,122.75z"/>
    </g>
  </g>
  <g id="Layer_14">
    <g>
      <rect x="257.423" y="272.63" width="17.039" height="21.741" style="fill: rgb(239, 225, 241);"/>
      <g>
        <path d="M257.952,290.871c-4.682,0-8.49-3.589-8.49-8s3.809-8,8.49-8s8.49,3.589,8.49,8 S262.633,290.871,257.952,290.871z M257.952,275.871c-4.13,0-7.49,3.141-7.49,7s3.36,7,7.49,7s7.49-3.141,7.49-7 S262.082,275.871,257.952,275.871z" style="fill: rgb(227, 215, 229);"/>
      </g>
    </g>
  </g>
  <g id="Layer_11">
    <g>
      <g/>
      <g>
        <g/>
      </g>
    </g>
  </g>
  <g>
    <path d="M 512.608 136.093 C 496.033 136.093 482.595 149.53 482.595 166.105 C 482.595 178.353 489.936 188.879 500.453 193.545 L 540.048 153.951 C 535.383 143.434 524.855 136.093 512.608 136.093 Z" style="fill: rgb(242, 242, 242);"/>
    <path d="M 500.454 193.545 C 504.171 195.194 508.281 196.117 512.608 196.117 C 529.183 196.117 542.621 182.681 542.621 166.105 C 542.621 161.777 541.698 157.667 540.049 153.951 L 500.454 193.545 Z" style="fill: rgb(241, 239, 242);"/>
  </g>
  <g>
    <g>
      <polygon points="512.285,165.153 495.808,185.001 513.803,166.778 &#9;&#9;&#9;&#9;" style="fill: rgb(229, 218, 215);"/>
    </g>
  </g>
  <g>
    <g>
      <path d="M512.608,192.28c-14.433,0-26.175-11.742-26.175-26.174s11.742-26.175,26.175-26.175 c14.435,0,26.175,11.742,26.175,26.175S527.043,192.28,512.608,192.28z M512.608,140.723c-13.996,0-25.383,11.387-25.383,25.382 s11.387,25.382,25.383,25.382s25.383-11.386,25.383-25.382S526.604,140.723,512.608,140.723z" style="fill: rgb(198, 191, 215);"/>
    </g>
  </g>
  <g>
    <g>
      <circle cx="512.608" cy="166.105" r="2.784" style="fill: rgb(214, 212, 212);"/>
    </g>
  </g>
  <g>
    <g>
      <polygon points="514.854,166.225 525.564,154.425 512.608,165.084 &#9;&#9;&#9;&#9;" style="fill: rgb(220, 213, 211);"/>
    </g>
  </g>
  <g>
    <g>
      <polygon points="513.886,167.635 527.501,180.69 515.446,167.977 &#9;&#9;&#9;&#9;" style="fill: rgb(199, 193, 192);"/>
    </g>
  </g>
  <g>
    <g>
      <rect x="511.118" y="140.2" width="1" height="6" fill="#F1F1F1"/>
    </g>
  </g>
  <g>
    <g>
      <rect x="511.118" y="186.2" width="1" height="6" fill="#F1F1F1"/>
    </g>
  </g>
  <g>
    <g>
      <rect x="533.118" y="165.073" width="6" height="0.792" fill="#F1F1F1"/>
    </g>
  </g>
  <g>
    <g>
      <rect x="486.118" y="164.677" width="7" height="0.792" fill="#F1F1F1"/>
    </g>
  </g>
  <g id="Layer_4">
    <g>
      <g>
        <g>
          <path d="M508.595,298.352l-8.292,41.461c1.08-0.235,2.15-0.488,3.211-0.76l5.081-25.404l4.491,22.458 c0.954-0.342,1.903-0.694,2.849-1.058L508.595,298.352z" style="fill: rgb(238, 231, 235);"/>
          <path d="M482.124,430.706l2.941,0.588l18.448-92.241c-1.061,0.271-2.131,0.524-3.211,0.76L482.124,430.706z" style="fill: rgb(239, 231, 236);"/>
          <path d="M513.086,336.106l19.038,95.188l2.941-0.588l-19.131-95.657 C514.989,335.412,514.04,335.765,513.086,336.106z" style="fill: rgb(233, 226, 230);"/>
        </g>
        <g>
          <path d="M197.991,430.706l2.941,0.588l17.665-88.322c-1.165,0.601-2.313,1.245-3.446,1.936L197.991,430.706z" style="fill: rgb(241, 229, 236);"/>
          <path d="M224.461,298.352l-9.311,46.556c1.133-0.69,2.282-1.335,3.446-1.936l5.865-29.323l4.974,24.867 c0.955-0.313,1.916-0.61,2.879-0.898L224.461,298.352z" style="fill: rgb(238, 230, 235);"/>
          <path d="M229.435,338.516l18.556,92.778l2.941-0.588l-18.618-93.089 C231.351,337.905,230.39,338.202,229.435,338.516z" style="fill: rgb(237, 230, 234);"/>
        </g>
      </g>
      <rect x="181.5" y="295" width="367" height="11" style="fill: rgb(240, 232, 236);"/>
    </g>
  </g>
  <g id="Layer_6">
    <g>
      <polygon fill="#89728C" points="380,295 354,295 357,278 377,278 &#9;&#9;"/>
      <rect x="297" y="196" width="140" height="86" style="fill: rgb(246, 238, 247);"/>
      <rect x="302" y="201.292" fill="#FFFFFF" width="129.5" height="75.416"/>
      <path fill="#F5EDEB" d="M352.414,213.709c0.573,0.598,0.761,1.349,0.418,1.677l-32.451,31.205 c-0.343,0.329-1.085,0.112-1.66-0.485l0,0c-0.574-0.597-0.763-1.348-0.42-1.677l32.452-31.205 C351.096,212.895,351.839,213.111,352.414,213.709L352.414,213.709z"/>
      <path fill="#F5EDEB" d="M351.512,230.829c0.574,0.598,0.884,1.231,0.692,1.415l-18.167,17.471 c-0.191,0.184-0.812-0.15-1.387-0.748l0,0c-0.574-0.597-0.884-1.231-0.693-1.415l18.168-17.47 C350.316,229.897,350.938,230.231,351.512,230.829L351.512,230.829z"/>
    </g>
  </g>
  <g id="Layer_5">
    <g>
      <g>
        <g opacity="0.7">
          <g>
            <polygon points="260.292,218.176 302,294.371 440.674,294.371 285.483,190.025 &#9;&#9;&#9;&#9;&#9;" style="fill: rgb(249, 247, 247);"/>
          </g>
        </g>
        <g>
          <g>
            <rect x="240.457" y="190.265" transform="matrix(0.7438 0.6684 -0.6684 0.7438 205.9211 -105.787)" width="1.01" height="50.939" style="fill: rgb(216, 214, 222);"/>
          </g>
        </g>
        <g>
          <g>
            <polygon points="220.192,287.564 221.771,287.564 221.771,241.301 220.192,241.758 &#9;&#9;&#9;&#9;&#9;" style="fill: rgb(219, 212, 235);"/>
          </g>
        </g>
        <g>
          <g>
            <polygon points="216.03,287.564 217.609,287.564 217.609,241.301 216.03,240.754 &#9;&#9;&#9;&#9;&#9;" style="fill: rgb(227, 217, 248);"/>
          </g>
        </g>
        <g>
          <g>
            <rect x="236.123" y="187.89" transform="matrix(0.7456 0.6663 -0.6663 0.7456 202.3044 -103.4264)" width="1.01" height="50.78" style="fill: rgb(206, 200, 218);"/>
          </g>
        </g>
        <g>
          <g>
            <path d="M219.726,242.271c-2.909,0-5.275-2.366-5.275-5.276c0-2.908,2.366-5.274,5.275-5.274 s5.276,2.366,5.276,5.274C225.002,239.905,222.635,242.271,219.726,242.271z M219.726,232.73c-2.353,0-4.265,1.913-4.265,4.265 c0,2.354,1.912,4.267,4.265,4.267s4.267-1.913,4.267-4.267C223.993,234.644,222.079,232.73,219.726,232.73z" style="fill: rgb(185, 177, 202);"/>
          </g>
        </g>
        <g>
          <path d="M263.203,189.679l-11.537-10.317c-0.461-0.412-1.169-0.373-1.581,0.088l-5.227,5.844 c-0.412,0.461-0.372,1.169,0.089,1.582l11.688,10.454c-3.421,6.714-2.796,14.566,2.174,19.555 c0.468,0.471,0.965,0.898,1.482,1.292c8.378-9.421,16.863-18.631,25.191-28.151 C279.768,184.448,270.381,184.467,263.203,189.679z M255.824,194.701l-7.466-6.413l0.73-0.882l7.48,6.426L255.824,194.701z M257.79,192.455l-7.456-6.405l0.746-0.868l7.474,6.42L257.79,192.455z M259.839,190.28l-7.403-6.36l0.746-0.868l7.406,6.363 L259.839,190.28z" style="fill: rgb(240, 243, 240);"/>
        </g>
      </g>
      <path d="M228.677,295.039h-19.242c-2.658,0-2.658-8.336,0-8.336h19.242 C231.335,286.703,231.335,295.039,228.677,295.039z" style="fill: rgb(228, 224, 235);"/>
    </g>
  </g>
  <g id="Layer_7">
    <g>
      <g>
        <g>
          <g>
            <g>
              <polygon fill="#FFFFFF" points="462.696,233.861 461.772,237.705 461.958,239.693 464.663,239.38 464.333,237.33 &#9;&#9;&#9;&#9;&#9;&#9;"/>
            </g>
          </g>
        </g>
        <g>
          <g>
            <g>
              <path d="M469.456,280.715c0.08,0.709-0.458,1.352-1.204,1.439l0,0c-0.749,0.086-1.422-0.416-1.503-1.125 l-4.819-41.584c-0.08-0.708,0.457-1.352,1.204-1.439l0,0c0.747-0.085,1.42,0.418,1.503,1.125L469.456,280.715z" style="fill: rgb(225, 220, 226);"/>
            </g>
          </g>
        </g>
        <g>
          <g>
            <g>
              <polygon fill="#645984" points="462.397,235.083 463.235,234.976 462.623,233.399 &#9;&#9;&#9;&#9;&#9;&#9;"/>
            </g>
          </g>
        </g>
      </g>
      <g>
        <g>
          <g>
            <g>
              <polygon fill="#FFFFFF" points="455.785,237.489 454.947,241.195 455.15,243.101 457.746,242.764 457.402,240.801 &#9;&#9;&#9;&#9;&#9;&#9;"/>
            </g>
          </g>
        </g>
        <g>
          <g>
            <g>
              <path d="M462.887,282.403c0.087,0.678-0.423,1.303-1.14,1.397l0,0c-0.717,0.092-1.369-0.381-1.455-1.061 l-5.171-39.878c-0.088-0.678,0.423-1.304,1.138-1.398l0,0c0.716-0.092,1.37,0.382,1.458,1.062L462.887,282.403z" style="fill: rgb(208, 200, 224);"/>
            </g>
          </g>
        </g>
        <g>
          <g>
            <g>
              <polygon fill="#645984" points="455.515,238.667 456.317,238.554 455.708,237.046 &#9;&#9;&#9;&#9;&#9;&#9;"/>
            </g>
          </g>
        </g>
      </g>
      <g>
        <g>
          <g>
            <path d="M468,282.645c-0.078,0.488-0.613,0.81-1.198,0.717l-0.423-0.066c-0.584-0.094-0.994-0.563-0.916-1.053 l5.563-35.088c0.075-0.489,0.612-0.809,1.197-0.718l0.421,0.067c0.584,0.094,0.995,0.564,0.919,1.053L468,282.645z" style="fill: rgb(203, 195, 204);"/>
          </g>
        </g>
        <g>
          <g>
            <polygon points="473.705,248.176 470.756,247.708 472.823,235.806 475.302,236.198 &#9;&#9;&#9;&#9;&#9;" style="fill: rgb(241, 220, 231);"/>
          </g>
        </g>
        <g>
          <g>
            <rect x="465.312" y="282.433" transform="matrix(0.9877 0.1566 -0.1566 0.9877 50.1307 -69.5847)" fill="#B62425" width="2.569" height="1.731"/>
          </g>
        </g>
      </g>
      <g>
        <polygon points="456.118,286.382 456.118,294.2 466.181,294.2 475.118,294.2 475.118,267.382 &#9;&#9;&#9;" style="fill: rgb(246, 232, 246);"/>
        <polygon points="475.118,267.2 466.181,267.2 456.118,267.2 456.118,286.382 475.118,267.382 &#9;&#9;&#9;" style="fill: rgb(234, 231, 234);"/>
      </g>
    </g>
  </g>
</svg>