<?xml version="1.0" encoding="UTF-8" standalone="no"?>
<!-- Created with Inkscape (http://www.inkscape.org/) -->

<svg
   version="1.1"
   id="svg2"
   xml:space="preserve"
   width="2666.6667"
   height="2666.6667"
   viewBox="0 0 2666.6667 2666.6667"
   sodipodi:docname="Digital_Product_Singgle-04.eps"
   xmlns:inkscape="http://www.inkscape.org/namespaces/inkscape"
   xmlns:sodipodi="http://sodipodi.sourceforge.net/DTD/sodipodi-0.dtd"
   xmlns="http://www.w3.org/2000/svg"
   xmlns:svg="http://www.w3.org/2000/svg"><defs
     id="defs6" /><sodipodi:namedview
     id="namedview4"
     pagecolor="#ffffff"
     bordercolor="#666666"
     borderopacity="1.0"
     inkscape:pageshadow="2"
     inkscape:pageopacity="0.0"
     inkscape:pagecheckerboard="0" /><g
     id="g8"
     inkscape:groupmode="layer"
     inkscape:label="ink_ext_XXXXXX"
     transform="matrix(1.3333333,0,0,-1.3333333,0,2666.6667)"><g
       id="g10"
       transform="scale(0.1)"><path
         d="M 0,0 H 20000 V 20000 H 0 Z"
         style="fill:#ffffff;fill-opacity:1;fill-rule:nonzero;stroke:none"
         id="path12" /><path
         d="m 3980.8,4070 c 0,0 -897.95,1304.2 0,3762.9 897.96,2458.7 3609.34,1812.8 4541.31,3632.4 931.97,1819.5 2223.49,3094 4148.69,3094 3188.9,0 5370.2,-3327 3937.8,-6277.4 -1432.5,-2950.5 -620,-4211.9 -620,-4211.9 H 3980.8"
         style="fill:#d7f1fe;fill-opacity:1;fill-rule:nonzero;stroke:none"
         id="path14" /><path
         d="m 4357.86,6561.6 c 0,0 -198.69,2086.2 0,3139.2 198.68,1053 59.61,1132.5 119.21,1728.6 59.6,596 39.74,-516.6 139.08,-774.9 99.34,-258.3 -178.82,-556.3 0,-1112.7 178.82,-556.3 59.61,-894 19.87,-1549.7 -39.74,-655.7 75.82,-1430.5 75.82,-1430.5 h -353.98"
         style="fill:#30b749;fill-opacity:1;fill-rule:nonzero;stroke:none"
         id="path16" /><path
         d="M 5346.75,6560.8 V 4930.7 c 0,-3.9 0,-7.8 -0.28,-11.7 -2.51,-204.8 -79.23,-391.4 -203.94,-534.8 -76.16,-87.6 -170.73,-159.1 -277.31,-208.7 -106.57,-49.7 -225.41,-77.3 -350.67,-77.3 -117.46,0 -229.05,24.3 -330.32,68.4 -86.76,37.6 -166,89.5 -234.63,152.8 -164.6,151.8 -267.54,369.7 -267.54,611.3 v 1630.1 h 1664.69"
         style="fill:#271f50;fill-opacity:1;fill-rule:nonzero;stroke:none"
         id="path18" /><path
         d="m 5346.75,6560.8 h -10 V 4930.7 c 0,-3.9 -0.01,-7.6 -0.26,-11 l 9.98,-0.7 3.49,9.4 c -410.2,152.5 -702.68,547.8 -702.67,1011.1 0.01,228.9 71.32,440.9 192.94,615.6 l -8.2,5.7 v -10 h 514.72 v 10 h -10 10 v 10 H 4826.8 l -2.98,-4.3 c -123.87,-177.9 -196.53,-393.9 -196.53,-627 0.02,-471.9 297.87,-874.5 715.69,-1029.9 l 12.52,-4.6 0.94,13.3 c 0.31,4.4 0.31,8.5 0.31,12.4 v 1640.1 h -10 v -10"
         style="fill:#ffffff;fill-opacity:1;fill-rule:nonzero;stroke:none"
         id="path20" /><path
         d="m 5346.75,6560.8 h -10 V 5224.7 h 10 l 4.7,8.9 c -252.69,134.5 -425.18,400.3 -425.17,705.9 0,246.3 111.84,466.7 287.67,613.6 l -6.41,7.7 v -10 h 139.21 v 10 h -10 10 v 10 h -142.84 l -2.78,-2.3 c -180.16,-150.5 -294.85,-376.5 -294.85,-629 0.01,-313.2 176.81,-585.8 435.77,-723.6 l 14.7,-7.8 v 1362.7 h -10 v -10"
         style="fill:#ffffff;fill-opacity:1;fill-rule:nonzero;stroke:none"
         id="path22" /><path
         d="m 4330.42,4712 h -10 c -0.01,-197.2 -52.8,-381.8 -144.84,-540.4 l 8.65,-5 3.98,9.1 c -85.72,37.3 -164.01,88.5 -231.82,151.1 -162.63,150 -264.33,365.2 -264.33,603.9 v 777 h -10 l -4.05,-9.2 C 4056.43,5531 4320.43,5152.3 4320.42,4712 h 10 9.99 c -0.01,448.5 -268.87,834.2 -654.3,1004.8 l -14.05,6.2 v -792.3 c 0,-244.5 104.19,-465 270.77,-618.6 69.44,-64.1 149.62,-116.6 237.42,-154.7 l 8.16,-3.6 4.47,7.7 c 93.76,161.7 147.54,349.8 147.53,550.5 h -9.99"
         style="fill:#ffffff;fill-opacity:1;fill-rule:nonzero;stroke:none"
         id="path24" /><path
         d="m 4051.44,4712 h -10 c -0.01,-140.9 -36.37,-272.8 -100.57,-387.7 l 8.73,-4.9 6.78,7.4 c -162.62,150 -264.32,365.2 -264.32,603.9 v 460 h -10 l -5.44,-8.3 c 219.62,-142.5 364.82,-389.9 364.82,-670.4 h 10 10 c -0.01,287.5 -148.86,541.1 -373.94,687.1 l -15.44,10.1 v -478.5 c 0,-244.5 104.19,-465 270.77,-618.6 l 9.32,-8.6 6.18,11.1 c 65.82,117.7 103.11,253.1 103.11,397.4 h -10"
         style="fill:#ffffff;fill-opacity:1;fill-rule:nonzero;stroke:none"
         id="path26" /><path
         d="m 4518.75,6556.6 c 0,0 -366.08,2838.9 1314.47,3470.3 1680.55,631.3 1069.61,-253.6 584.3,-933.9 C 5932.21,8412.7 5163.21,8829 4990.9,8089.6 4818.58,7350.3 4582.65,7229.4 4518.75,6556.6"
         style="fill:#3cd35c;fill-opacity:1;fill-rule:nonzero;stroke:none"
         id="path28" /><path
         d="m 4159.96,7130.8 c 0,0 -150.68,334.9 -318.11,987.8 -167.43,653 -669.71,-133.9 -1121.76,586 -452.05,719.9 519.03,987.8 1188.73,385.1 669.71,-602.7 569.25,-2528.1 569.25,-2528.1 l -318.11,569.2"
         style="fill:#60ef7b;fill-opacity:1;fill-rule:nonzero;stroke:none"
         id="path30" /><path
         d="M 11390.2,10248.9 H 9406.61 v 183.1 h 1983.59 v -183.1"
         style="fill:#e5e5e5;fill-opacity:1;fill-rule:nonzero;stroke:none"
         id="path32" /><path
         d="m 13589.2,11984 -520.6,-1735.1 H 11085 l 590,2005.8 c 11.7,40 50.8,65.5 92.1,60.2 l 46.1,-5.8 1705.4,-216.6 c 52,-6.6 85.6,-58.3 70.6,-108.5"
         style="fill:#e5e5e5;fill-opacity:1;fill-rule:nonzero;stroke:none"
         id="path34" /><path
         d="m 13589.2,11984 -520.6,-1735.1 h -1861.5 l 585.7,1990.9 c 11.7,39.9 50.8,65.4 92.1,60.2 l 1633.7,-207.5 c 52,-6.6 85.6,-58.3 70.6,-108.5"
         style="fill:#c9c9c9;fill-opacity:1;fill-rule:nonzero;stroke:none"
         id="path36" /><path
         d="m 12855,11393.3 c 0,-160.1 -129.8,-289.9 -289.9,-289.9 -160.1,0 -289.9,129.8 -289.9,289.9 0,160.1 129.8,289.9 289.9,289.9 160.1,0 289.9,-129.8 289.9,-289.9"
         style="fill:#e5e5e5;fill-opacity:1;fill-rule:nonzero;stroke:none"
         id="path38" /><path
         d="m 10147.2,12419.9 945.4,968.4 c 0,0 -49.2,98.3 49.1,196.6 98.3,98.2 49.1,221.1 147.4,196.5 98.3,-24.6 49.1,-147.4 49.1,-147.4 0,0 218.2,179.2 270.3,196.6 73.7,24.5 491.4,-294.9 -270.3,-565.1 0,0 -810.7,-2014.6 -1621.48,-1547.8 l 430.48,702.2"
         style="fill:#fca5a4;fill-opacity:1;fill-rule:nonzero;stroke:none"
         id="path40" /><path
         d="m 9274.49,10759.5 -73.71,-2751.7 -171.98,-2751.7 -638.78,-98.2 -54.79,1040.4 -92.62,1760.4 v 2800.8 h 1031.88"
         style="fill:#1e1b50;fill-opacity:1;fill-rule:nonzero;stroke:none"
         id="path42" /><path
         d="m 8335.23,6198.3 v 0 l -92.62,1760.4 188.9,1520 118.2,-1630.6 -214.48,-1649.8"
         style="fill:#0c0628;fill-opacity:1;fill-rule:nonzero;stroke:none"
         id="path44" /><path
         d="m 7309,10759.5 v -2678 l -491.37,-3071.1 663.35,-73.7 761.63,3022 348.05,2800.8 H 7309"
         style="fill:#271f50;fill-opacity:1;fill-rule:nonzero;stroke:none"
         id="path46" /><path
         d="m 10208.1,12454.7 -466.81,-761.6 -466.8,122.8 v -1056.4 c -982.75,-270.3 -1965.49,0 -1965.49,0 v 1719.8 l 393.1,663.3 589.64,221.1 h 515.95 l 589.64,-270.2 c 0,0 761.67,-589.7 810.77,-638.8"
         style="fill:#ffb83b;fill-opacity:1;fill-rule:nonzero;stroke:none"
         id="path48" /><path
         d="m 8328.14,10639.4 c -582.39,0 -1019.14,120.1 -1019.14,120.1 v 1694 c 321.11,8.1 601.93,13.5 601.93,13.5 0,0 221.12,-368.5 49.14,-835.3 -171.98,-466.8 -368.53,-442.3 -171.98,-663.4 73.13,-82.3 217.76,-110.1 385.66,-110.1 283.34,0 633.07,79.2 818.2,110.1 122.84,20.4 215.95,143.5 282.54,279.9 v -488.7 c -327.56,-90.1 -655.18,-120.1 -946.35,-120.1"
         style="fill:#ff970e;fill-opacity:1;fill-rule:nonzero;stroke:none"
         id="path50" /><path
         d="M 9768.56,12951.7 9607.64,12267 c -8.11,-33.9 -38.58,-58 -73.47,-58 h -265.58 c -47.66,0 -83.29,43.8 -73.71,90.4 l 141.03,684.8 c 7.12,35.1 37.83,60.2 73.7,60.2 h 285.74 c 15.23,0 29.23,-4.5 41.02,-12.3 6.64,-4.2 12.29,-9.4 17.2,-15.3 14.25,-17.4 20.64,-41 14.99,-65.1"
         style="fill:#c9c9c9;fill-opacity:1;fill-rule:nonzero;stroke:none"
         id="path52" /><path
         d="m 6817.63,11226.3 c 0,0 294.83,-393.1 687.92,-344 393.1,49.2 1744.37,1326.7 1744.37,1326.7 0,0 343.96,-49.1 368.53,98.3 24.56,147.4 -24.57,270.3 -368.53,196.5 l 24.57,98.3 c 0,0 -147.41,-24.5 -245.69,-245.7 l -1203.86,-687.9 c 0,0 -491.37,-368.5 -1007.31,-442.2"
         style="fill:#fca5a4;fill-opacity:1;fill-rule:nonzero;stroke:none"
         id="path54" /><path
         d="m 8930.53,5157.9 -49.14,-565.1 c 0,0 -196.55,-245.7 -319.39,-245.7 -122.84,0 -98.27,147.4 -98.27,147.4 l -49.15,589.6 515.95,73.8"
         style="fill:#fca5a4;fill-opacity:1;fill-rule:nonzero;stroke:none"
         id="path56" /><path
         d="M 9839.56,4076.8 H 8390.02 c 0,0 -24.57,565.1 73.71,516 0,0 49.13,-73.7 245.68,-49.2 196.55,24.6 183.28,178.9 183.28,178.9 0,0 62.4,91.4 258.95,-56 3.2,-2.5 6.88,-5.2 11.06,-7.9 38.57,-26.8 112.52,-70.5 193.35,-119.4 106.14,-64.6 224.07,-137.8 286.96,-192.1 191.39,-165.1 196.55,-270.3 196.55,-270.3"
         style="fill:#1e1b50;fill-opacity:1;fill-rule:nonzero;stroke:none"
         id="path58" /><path
         d="m 9356.05,4539.2 c -40.04,-74.4 -99.99,-176.6 -130.7,-192.1 -49.14,-24.6 -73.71,49.1 -73.71,49.1 0,0 -49.14,-24.5 -98.27,24.6 -31.45,31.4 48.15,154 109.33,237.8 38.57,-26.8 112.52,-70.5 193.35,-119.4"
         style="fill:#ffb83b;fill-opacity:1;fill-rule:nonzero;stroke:none"
         id="path60" /><path
         d="m 7405.27,5077.1 -193.94,-533 c 0,0 -253.52,-186.3 -372.16,-154.5 -118.65,31.8 -56.7,167.9 -56.7,167.9 l 105.39,582.2 517.41,-62.6"
         style="fill:#fca5a4;fill-opacity:1;fill-rule:nonzero;stroke:none"
         id="path62" /><path
         d="M 8168.9,4076.8 H 6719.36 c 0,0 -24.57,565.1 73.7,516 0,0 49.14,-73.7 245.69,-49.2 196.55,24.6 245.68,172 245.68,172 0,0 49.14,73.7 196.55,-49.1 3.1,-2.6 6.88,-5.2 11.06,-7.9 38.57,-26.8 112.52,-70.5 193.35,-119.4 106.14,-64.6 224.07,-137.8 286.96,-192.1 191.39,-165.1 196.55,-270.3 196.55,-270.3"
         style="fill:#1e1b50;fill-opacity:1;fill-rule:nonzero;stroke:none"
         id="path64" /><path
         d="m 7685.39,4539.2 c -40.04,-74.4 -99.99,-176.6 -130.7,-192.1 -49.14,-24.6 -73.71,49.1 -73.71,49.1 0,0 -49.13,-24.5 -98.27,24.6 -31.45,31.4 48.15,154 109.33,237.8 38.57,-26.8 112.52,-70.5 193.35,-119.4"
         style="fill:#ffb83b;fill-opacity:1;fill-rule:nonzero;stroke:none"
         id="path66" /><path
         d="m 8758.54,13044.4 c -73.7,-98.3 -393.09,-73.7 -466.8,294.8 l 90.17,537 12.78,76.9 363.85,-343.7 v -245.7 c 0,0 10.32,-31.2 19.42,-75.1 15.23,-73.5 26.78,-182.8 -19.42,-244.2"
         style="fill:#fca5a4;fill-opacity:1;fill-rule:nonzero;stroke:none"
         id="path68" /><path
         d="m 8758.54,13609.4 -331.67,313.3 v 43 l 331.67,-356.3"
         style="fill:#ffffff;fill-opacity:1;fill-rule:nonzero;stroke:none"
         id="path70" /><path
         d="m 8777.96,13288.6 c -301.21,68.5 -333.16,330.2 -351.09,529.7 v 104.4 l 331.67,-313.3 v -245.7 0 c 0,0 10.32,-31.2 19.42,-75.1"
         style="fill:#fc7a8f;fill-opacity:1;fill-rule:nonzero;stroke:none"
         id="path72" /><path
         d="m 9184.42,14310.3 c 0,0 151.75,-758.7 -379.37,-809.3 -531.12,-50.6 -404.67,809.3 -404.67,809.3 h 784.04"
         style="fill:#fca5a4;fill-opacity:1;fill-rule:nonzero;stroke:none"
         id="path74" /><path
         d="m 8340.88,14051.7 c -184.26,184.2 -122.84,515.9 147.41,589.6 270.25,73.7 442.24,-49.1 442.24,98.3 0,147.4 98.27,368.5 368.52,319.4 270.26,-49.2 515.95,-761.7 -122.84,-835.4 -614.21,-49.1 -638.78,-73.7 -638.78,-171.9 h -196.55"
         style="fill:#271f50;fill-opacity:1;fill-rule:nonzero;stroke:none"
         id="path76" /><path
         d="m 7702.1,13142.6 c 0,0 270.25,-343.9 245.68,-884.4 -24.56,-540.5 -122.84,-589.7 -122.84,-589.7 0,0 -466.8,-442.2 -1007.31,-442.2 0,0 196.55,1302.1 884.47,1916.3"
         style="fill:#ffb83b;fill-opacity:1;fill-rule:nonzero;stroke:none"
         id="path78" /><path
         d="m 8541.28,14037.2 c 0,-80.2 -65.03,-145.2 -145.24,-145.2 -80.21,0 -145.24,65 -145.24,145.2 0,80.2 65.03,145.2 145.24,145.2 80.21,0 145.24,-65 145.24,-145.2"
         style="fill:#fca5a4;fill-opacity:1;fill-rule:nonzero;stroke:none"
         id="path80" /><path
         d="m 9151.64,5379 -884.46,-122.9 49.13,-319.4 810.77,147.4 24.56,294.9"
         style="fill:#373172;fill-opacity:1;fill-rule:nonzero;stroke:none"
         id="path82" /><path
         d="m 7650.03,5136.3 -880.12,150.9 -49.93,-319.3 817.32,-105.1 112.73,273.5"
         style="fill:#373172;fill-opacity:1;fill-rule:nonzero;stroke:none"
         id="path84" /><path
         d="M 14901.5,9828 H 6584.66 v 449 h 8316.84 v -449"
         style="fill:#99ddff;fill-opacity:1;fill-rule:nonzero;stroke:none"
         id="path86" /><path
         d="m 8054.55,4076.8 h -201.01 v 5772.6 h 201.01 V 4076.8"
         style="fill:#99ddff;fill-opacity:1;fill-rule:nonzero;stroke:none"
         id="path88" /><path
         d="m 13632.6,4076.8 h -201 v 5772.6 h 201 V 4076.8"
         style="fill:#99ddff;fill-opacity:1;fill-rule:nonzero;stroke:none"
         id="path90" /><path
         d="m 13429.2,14882.4 c 0,-578.6 -469.1,-1047.6 -1047.6,-1047.6 -578.6,0 -1047.7,469 -1047.7,1047.6 0,578.6 469.1,1047.6 1047.7,1047.6 578.5,0 1047.6,-469 1047.6,-1047.6"
         style="fill:#20a8f9;fill-opacity:1;fill-rule:nonzero;stroke:none"
         id="path92" /><path
         d="m 12381.6,13961.2 c -508,0 -921.2,413.2 -921.2,921.2 0,507.9 413.2,921.2 921.2,921.2 507.9,0 921.1,-413.3 921.1,-921.2 0,-508 -413.2,-921.2 -921.1,-921.2"
         style="fill:#99ddff;fill-opacity:1;fill-rule:nonzero;stroke:none"
         id="path94" /><path
         d="m 12381.6,13961.2 c -0.5,0 -0.9,0 -1.4,0 0.4,0 0.9,0 1.4,0 507.9,0 921.1,413.2 921.1,921.2 v 0 c 0,-508 -413.2,-921.2 -921.1,-921.2 m -1.8,0 c -0.3,0 -0.6,0 -1,0 0.3,0 0.7,0 1,0 m -1.4,0 c -0.4,0 -0.8,0 -1.2,0 0.4,0 0.8,0 1.2,0 m -1.3,0 c -0.5,0 -0.9,0 -1.3,0 0.4,0 0.9,0 1.3,0 m -1.8,0 c -0.3,0 -0.6,0 -0.9,0 0.3,0 0.6,0 0.9,0 m -1.4,0 c -0.3,0 -0.7,0 -1,0 0.3,0 0.7,0 1,0 m -1.3,0 c -0.4,0.1 -0.9,0.1 -1.3,0.1 0.4,0 0.9,0 1.3,-0.1 m -1.8,0.1 c -0.3,0 -0.5,0 -0.8,0 0.3,0 0.5,0 0.8,0 m -1.4,0 c -0.3,0 -0.6,0 -0.8,0 0.2,0 0.5,0 0.8,0 m -1.3,0 c -0.4,0 -0.8,0 -1.3,0 0.5,0 0.9,0 1.3,0 m -1.8,0 c -0.2,0 -0.5,0 -0.8,0 0.3,0 0.6,0 0.8,0 m -1.3,0.1 c -0.3,0 -0.6,0 -0.9,0 0.3,0 0.6,0 0.9,0 m -1.4,0 c -0.4,0 -0.8,0 -1.2,0 0.4,0 0.8,0 1.2,0 m -1.8,0 c -0.2,0 -0.5,0 -0.7,0 0.3,0 0.5,0 0.7,0 m -1.4,0 c -0.2,0 -0.4,0 -0.6,0 0.2,0 0.4,0 0.6,0 m -1.3,0.1 c -0.1,0 -0.3,0 -0.3,0 0.1,0 0.2,0 0.3,0 m -2,0 c -0.2,0 -0.3,0 -0.4,0 0.1,0 0.2,0 0.4,0 m -1.3,0.1 c -0.1,0 -0.2,0 -0.3,0 0.1,0 0.2,0 0.3,0 m -1.2,0 c -0.1,0 -0.2,0 -0.3,0 0.1,0 0.2,0 0.3,0 m -2.1,0.1 c -0.1,0 -0.2,0 -0.2,0 0,0 0.1,0 0.2,0 m -1.2,0 c -0.1,0 -0.1,0 -0.2,0 0,0 0.1,0 0.2,0 m -4.6,0.2 v 0 0 m 956,920.5 c 0,0.8 0,1.6 0,2.4 0,-0.8 0,-1.6 0,-2.4 m 0,3 c 0,0.4 0,0.8 0,1.2 0,-0.4 0,-0.8 0,-1.2 m 0,1.5 c 0,0.2 0,0.4 0,0.6 0,-0.2 0,-0.4 0,-0.6 m 0,1.5 c 0,0 0,0.2 0,0.2 0,0 0,-0.2 0,-0.2 m 0,1.4 c 0,0.2 0,0.4 0,0.6 0,-0.2 0,-0.4 0,-0.6 m 0,1.5 c 0,0.1 0,0.3 0,0.4 0,-0.1 0,-0.3 0,-0.4 m 0,1.5 c 0,0.1 0,0 0,0.1 v -0.1 m 0,1.5 v 0.1 c 0,-0.1 0,-0.1 0,-0.1 m -0.1,1.5 v 0 0 m 0,1.5 v 0 c 0,0 0,0 0,0 m 0,1.5 v 0 0 m 0,1.5 v 0 c 0,0 0,0 0,0"
         style="fill:#148df7;fill-opacity:1;fill-rule:nonzero;stroke:none"
         id="path96" /><path
         d="m 12381.6,13961.2 c -0.5,0 -1,0 -1.4,0 -0.1,0 -0.2,0 -0.4,0 -0.3,0 -0.7,0 -1,0 -0.1,0 -0.2,0 -0.4,0 -0.4,0 -0.8,0 -1.2,0 -0.1,0 -0.1,0 -0.1,0 -0.4,0 -0.9,0 -1.3,0 -0.2,0 -0.3,0 -0.5,0 -0.3,0 -0.6,0 -0.9,0 -0.2,0 -0.3,0 -0.5,0 -0.3,0 -0.7,0 -1,0 -0.1,0 -0.2,0 -0.3,0 -0.4,0.1 -0.9,0.1 -1.3,0.1 -0.1,0 -0.3,0 -0.5,0 -0.3,0 -0.5,0 -0.8,0 -0.2,0 -0.4,0 -0.6,0 -0.3,0 -0.6,0 -0.8,0 -0.2,0 -0.4,0 -0.5,0 -0.4,0 -0.8,0 -1.3,0 -0.1,0 -0.3,0 -0.5,0 -0.2,0 -0.5,0 -0.8,0 -0.2,0 -0.3,0 -0.5,0.1 -0.3,0 -0.6,0 -0.9,0 -0.2,0 -0.3,0 -0.5,0 -0.4,0 -0.8,0 -1.2,0 -0.2,0 -0.4,0 -0.6,0 -0.2,0 -0.4,0 -0.7,0 -0.2,0 -0.5,0 -0.7,0 -0.2,0 -0.4,0 -0.6,0 -0.2,0.1 -0.5,0.1 -0.7,0.1 -0.1,0 -0.2,0 -0.3,0 -0.6,0 -1.2,0 -1.7,0 -0.2,0 -0.3,0 -0.4,0 -0.3,0 -0.6,0.1 -0.9,0.1 -0.1,0 -0.2,0 -0.3,0 -0.3,0 -0.6,0 -0.9,0 -0.1,0 -0.2,0 -0.3,0 -0.6,0 -1.2,0 -1.8,0.1 -0.1,0 -0.2,0 -0.2,0 -0.3,0 -0.7,0 -1,0 -0.1,0 -0.2,0 -0.2,0 -1.5,0 -2.9,0.1 -4.4,0.2 v 0 c -370.4,13.8 -685.4,247.5 -818.4,573.9 166.6,-165.5 396,-268 648.8,-268 508,0 921.2,413.3 921.2,921.2 0,122.6 -24.2,239.5 -67.9,346.5 164.2,-163 267.4,-387.2 272.2,-635.2 v 0 c 0,-0.5 0,-1 0,-1.5 v 0 c 0,-0.5 0,-1 0,-1.5 v 0 c 0,-0.5 0,-1 0,-1.5 v 0 c 0.1,-0.5 0.1,-1 0.1,-1.4 v -0.1 c 0,-0.5 0,-1 0,-1.4 0,-0.1 0,0 0,-0.1 0,-0.3 0,-0.7 0,-1.1 0,-0.1 0,-0.3 0,-0.4 0,-0.3 0,-0.6 0,-0.9 0,-0.2 0,-0.4 0,-0.6 0,-0.4 0,-0.7 0,-1.2 0,0 0,-0.2 0,-0.2 0,-0.3 0,-0.6 0,-0.9 0,-0.2 0,-0.4 0,-0.6 0,-0.1 0,-0.2 0,-0.3 0,-0.4 0,-0.8 0,-1.2 0,-0.2 0,-0.4 0,-0.6 0,-0.8 0,-1.6 0,-2.4 v 0 c 0,-508 -413.2,-921.2 -921.1,-921.2"
         style="fill:#79d3ff;fill-opacity:1;fill-rule:nonzero;stroke:none"
         id="path98" /><path
         d="m 12686.5,15258.7 c -37.5,-37.6 -74.7,-75.4 -110.7,-114.2 -36.8,-38.2 -71.3,-78.3 -107.1,-117.3 l -60,-69.6 c -4.7,0.9 -9.5,1.4 -14.4,1.4 -42.3,0 -76.6,-34.3 -76.6,-76.6 v -0.3 c -25.3,-14.8 -50.4,-29.7 -75.4,-45 -43.7,-27.3 -88,-53.7 -131,-82.3 -43.4,-27.7 -86.1,-56.9 -128.6,-86.2 -42.2,-30.1 -84.4,-60 -124.9,-92.8 48.8,18.2 96,39.4 143.3,60.5 46.9,21.7 93.7,43.7 139.7,67 46.4,22.5 91.6,47.3 137.3,71.1 26,13.8 51.7,28 77.4,42.3 11.4,-6.8 24.6,-11 38.8,-11 42.4,0 76.7,34.4 76.7,76.7 0,9.5 -1.9,18.4 -5.1,26.8 l 58.5,71.1 c 32.4,41.9 66,82.7 97.3,125.5 32.1,42.1 63.1,85.2 93.7,128.5 30,43.9 60.3,87.6 87.8,133.6 -40.7,-35 -78.6,-72.2 -116.7,-109.2"
         style="fill:#271f50;fill-opacity:1;fill-rule:nonzero;stroke:none"
         id="path100" /><path
         d="m 15020.5,5071.7 3.4,-512.4 c 0,0 159.3,-235.4 269.9,-244.3 110.6,-8.9 99.1,125.6 99.1,125.6 l 86.9,527.5 -459.3,103.6"
         style="fill:#fca5a4;fill-opacity:1;fill-rule:nonzero;stroke:none"
         id="path102" /><path
         d="m 16547.6,5015.8 82.7,-505.7 c 0,0 193.7,-208 304.4,-199.6 110.7,8.3 78.5,139.5 78.5,139.5 l 4.2,534.5 -469.8,31.3"
         style="fill:#fca5a4;fill-opacity:1;fill-rule:nonzero;stroke:none"
         id="path104" /><path
         d="m 14998.6,5123.2 554.9,-88.8 88.8,455.7 577.1,2962.5 66.5,2130.9 h -954.4 l 22.2,-399.6 -355.1,-5060.7"
         style="fill:#271f50;fill-opacity:1;fill-rule:nonzero;stroke:none"
         id="path106" /><path
         d="m 15642.3,5490.1 144.2,2729.5 169.1,822.1 150.7,-1169.4 -464,-2382.2"
         style="fill:#160728;fill-opacity:1;fill-rule:nonzero;stroke:none"
         id="path108" /><path
         d="m 17085,5034.4 -621.5,66.6 -643.7,4994.2 -366.2,488.3 1520.4,-66.6 111,-5482.5"
         style="fill:#271f50;fill-opacity:1;fill-rule:nonzero;stroke:none"
         id="path110" /><path
         d="m 14881.8,5286.9 787.6,-174.6 -67.3,-284.1 -719.5,191.4 -0.8,267.3"
         style="fill:#373172;fill-opacity:1;fill-rule:nonzero;stroke:none"
         id="path112" /><path
         d="m 14155.1,4080 h 1309.6 c 0,0 22.2,510.5 -66.6,466.1 0,0 -44.4,-66.6 -222,-44.4 -177.5,22.2 -165.5,161.6 -165.5,161.6 0,0 -56.4,82.6 -234,-50.6 -2.9,-2.2 -6.2,-4.7 -10,-7.1 -34.8,-24.2 -101.6,-63.7 -174.7,-107.9 -95.9,-58.4 -202.4,-124.5 -259.2,-173.6 C 14159.8,4175 14155.1,4080 14155.1,4080"
         style="fill:#271f50;fill-opacity:1;fill-rule:nonzero;stroke:none"
         id="path114" /><path
         d="m 14591.9,4497.7 c 36.2,-67.2 90.4,-159.6 118.1,-173.6 44.4,-22.2 66.6,44.4 66.6,44.4 0,0 44.4,-22.2 88.8,22.2 28.4,28.4 -43.5,139.2 -98.8,214.9 -34.8,-24.2 -101.6,-63.7 -174.7,-107.9"
         style="fill:#20a8f9;fill-opacity:1;fill-rule:nonzero;stroke:none"
         id="path116" /><path
         d="m 16348.3,5269.8 801.3,-93.5 -38.1,-289.5 -735.2,117.2 -28,265.8"
         style="fill:#373172;fill-opacity:1;fill-rule:nonzero;stroke:none"
         id="path118" /><path
         d="m 15797.6,4080 h 1309.6 c 0,0 22.2,510.5 -66.6,466.1 0,0 -44.4,-66.6 -221.9,-44.4 -177.6,22.2 -222,155.4 -222,155.4 0,0 -44.4,66.6 -177.6,-44.4 -2.8,-2.3 -6.2,-4.7 -10,-7.1 -34.8,-24.2 -101.6,-63.7 -174.6,-107.9 -95.9,-58.4 -202.5,-124.5 -259.3,-173.6 C 15802.3,4175 15797.6,4080 15797.6,4080"
         style="fill:#271f50;fill-opacity:1;fill-rule:nonzero;stroke:none"
         id="path120" /><path
         d="m 16234.5,4497.7 c 36.1,-67.2 90.3,-159.6 118,-173.6 44.4,-22.2 66.6,44.4 66.6,44.4 0,0 44.4,-22.2 88.8,22.2 28.4,28.4 -43.5,139.2 -98.8,214.9 -34.8,-24.2 -101.6,-63.7 -174.6,-107.9"
         style="fill:#20a8f9;fill-opacity:1;fill-rule:nonzero;stroke:none"
         id="path122" /><path
         d="m 14517.4,11404.7 h -318.5 c -45.6,0 -79.8,-41.7 -70.9,-86.5 l 147.2,-735.8 c 7.4,-37 42,-62.1 79.5,-57.6 l 309.4,37 c 41.8,5 70.5,44.5 62.4,85.8 l -138.1,698.8 c -6.7,33.9 -36.4,58.3 -71,58.3"
         style="fill:#271f50;fill-opacity:1;fill-rule:nonzero;stroke:none"
         id="path124" /><path
         d="m 14603.9,12200.5 c 0,0 -159.2,27.9 -188.2,91.8 -82.5,147.6 -828,1296.8 -828,1296.8 0,0 -20.9,198.7 -123.1,321.9 -102.2,123.2 -76.6,304.4 -138.2,253.3 -61.6,-51.1 -25.6,-181.2 -25.6,-181.2 0,0 -201,1.2 -220.7,-23.2 -19.8,-24.4 -166.1,94.2 -281.1,126.7 -115,32.6 -141.9,-349.7 178.8,-427.6 320.6,-77.9 391.4,-115.1 391.4,-115.1 l 479.5,-1378 c 0,0 99.7,-525.2 808.5,-473.1 l -53.3,507.7"
         style="fill:#fca5a4;fill-opacity:1;fill-rule:nonzero;stroke:none"
         id="path126" /><path
         d="m 16285.9,12625.5 -577.1,-22.2 -155.3,-2108.6 c 0,0 288.5,-222 688.1,22.2 l 44.3,2108.6"
         style="fill:#dddddd;fill-opacity:1;fill-rule:nonzero;stroke:none"
         id="path128" /><path
         d="m 15787,12653 c -0.7,-53.7 22,-124.9 143.8,-138.5 v -155.3 l 88.8,155.3 c 0,0 177.6,0 266.3,222 -47.2,142.1 -123.4,364 -163.1,480.3 -16.4,47.3 -26.6,77 -26.6,77 l -298.6,-313.2 v -266.3 c 0,0 -10.2,-27.1 -10.6,-61.3"
         style="fill:#fca5a4;fill-opacity:1;fill-rule:nonzero;stroke:none"
         id="path130" /><path
         d="m 15787,12653 c 0.4,34.2 10.6,61.3 10.6,61.3 v 266.3 l 298.6,313.2 c 0,0 10.2,-29.7 26.6,-77 -10,-194.2 -69.9,-490.7 -335.8,-563.8"
         style="fill:#fc7a8f;fill-opacity:1;fill-rule:nonzero;stroke:none"
         id="path132" /><path
         d="m 16064,10206.1 c 48.6,-45.7 101.4,-81 156.9,-108.1 375.3,-182.9 864.1,19.4 864.1,19.4 0,692.7 -105.2,1619.4 -162.9,2075.3 -21.8,172.5 -36.9,277.4 -36.9,277.4 l -599.3,266.4 c -0.6,-1.8 -1.3,-3.6 -2.2,-5.3 -46.1,-108.4 -166.2,-189.8 -166.2,-189.8 l -52.4,-2290.7 -1.1,-44.6"
         style="fill:#20a8f9;fill-opacity:1;fill-rule:nonzero;stroke:none"
         id="path134" /><path
         d="m 16064,10206.1 c 48.6,-45.7 101.4,-81 156.9,-108.1 l 62.8,2633.2 c -46.1,-108.4 -166.2,-189.8 -166.2,-189.8 l -53.5,-2335.3"
         style="fill:#43c0ff;fill-opacity:1;fill-rule:nonzero;stroke:none"
         id="path136" /><path
         d="m 15198.3,10095.2 c 139.6,0 245.1,20.6 321.4,45.7 117.9,38.4 167,87.4 167,87.4 l 127.6,2339.1 c -50,52.5 -16.7,146.9 -16.7,146.9 l -75.4,-43.1 -390.7,-223.3 -133.2,-2352.7"
         style="fill:#20a8f9;fill-opacity:1;fill-rule:nonzero;stroke:none"
         id="path138" /><path
         d="m 15519.7,10140.9 c 117.9,38.4 167,87.4 167,87.4 l 127.6,2339.1 c -50,52.5 -16.7,146.9 -16.7,146.9 l -75.4,-43.1 -202.5,-2530.3"
         style="fill:#43c0ff;fill-opacity:1;fill-rule:nonzero;stroke:none"
         id="path140" /><path
         d="m 14546.8,11681.2 174.9,-10 875,-50.1 50.3,-3 -92.7,883 c 0,0 -587.8,-136.9 -932.4,-200.1 -74.9,-13.6 -138.3,-23.8 -181.8,-28.4 0,0 -0.2,-424.1 106.7,-591.4"
         style="fill:#20a8f9;fill-opacity:1;fill-rule:nonzero;stroke:none"
         id="path142" /><path
         d="m 14546.8,11681.2 174.9,-10 c -95.5,201.8 -103.4,481.3 -99.8,629.8 -74.9,-13.6 -138.3,-23.8 -181.8,-28.4 0,0 -0.2,-424.1 106.7,-591.4"
         style="fill:#43c0ff;fill-opacity:1;fill-rule:nonzero;stroke:none"
         id="path144" /><path
         d="m 16586.4,10021.5 c -120.7,0 -248.6,19.6 -365.5,76.5 l 3.9,163.2 c 174.3,52.6 286.3,225.9 270.9,276.5 -23.3,76.6 23.3,34.7 1.1,700.5 -22.2,665.9 288.6,954.5 288.6,954.5 h 136.7 c 57.7,-455.9 162.9,-1382.6 162.9,-2075.3 0,0 -231.7,-95.9 -498.6,-95.9"
         style="fill:#0e7ff8;fill-opacity:1;fill-rule:nonzero;stroke:none"
         id="path146" /><path
         d="m 16220.9,10098 c -55.5,27.1 -108.3,62.4 -156.9,108.1 l 1.1,44.6 c 19.7,-3.3 38.9,-4.8 57.7,-4.8 35.9,0 70,5.6 102,15.3 l -3.9,-163.2"
         style="fill:#34a2ff;fill-opacity:1;fill-rule:nonzero;stroke:none"
         id="path148" /><path
         d="m 16565.2,11034.5 c 3.8,-125.9 9.3,-206.9 9.3,-206.9 244.2,-88.8 821.3,-88.8 821.3,-88.8 0,0 -4.3,91 -16,235.5 -15.6,190 -44.6,473.3 -95,763.4 -88.8,510.5 -399.6,732.4 -399.6,732.4 -327.3,0 -333.8,-998.8 -320,-1435.6"
         style="fill:#20a8f9;fill-opacity:1;fill-rule:nonzero;stroke:none"
         id="path150" /><path
         d="m 16565.2,11034.5 c 3.8,-125.9 9.3,-206.9 9.3,-206.9 244.2,-88.8 821.3,-88.8 821.3,-88.8 0,0 -4.3,91 -16,235.5 -168.7,-22.8 -438.4,-27.5 -814.6,60.2"
         style="fill:#43c0ff;fill-opacity:1;fill-rule:nonzero;stroke:none"
         id="path152" /><path
         d="m 17332.7,10739.6 c 0,0 -25.7,-444.7 -758.2,-444.7 -732.5,0 -1820.1,288.6 -1820.1,288.6 0,0 -266.3,-111 -443.9,22.2 -97.4,73 -54.5,221.9 44.4,288.5 81.3,54.8 200.5,40.1 310.7,0 l -22.2,133.2 c 0,0 111,88.8 199.8,-133.2 l 1731.3,-66.6 c 0,0 295.6,-87.3 758.2,-88"
         style="fill:#fca5a4;fill-opacity:1;fill-rule:nonzero;stroke:none"
         id="path154" /><path
         d="m 15153.9,13779.7 c 0,0 -44.3,-1021 510.6,-976.6 554.9,44.4 443.9,754.6 443.9,754.6 l -288.6,377.4 -665.9,-155.4"
         style="fill:#fca5a4;fill-opacity:1;fill-rule:nonzero;stroke:none"
         id="path156" /><path
         d="m 14843.2,14201.4 c 0,0 375.6,-95.6 887.8,-44.4 444,44.4 355.2,-332.9 355.2,-332.9 0,0 155.4,-155.4 26,-514.9 l -70.4,137.6 -133.2,-133.2 c 0,0 -22.2,111 -8.3,335.1 -48.9,-58.6 -159.2,-157.5 -346.8,-157.5 0,0 165.9,33.2 225.1,171.4 -182.9,-38.8 -558.1,-76.7 -802.2,183.7 -155.4,133.2 -133.2,355.1 -133.2,355.1"
         style="fill:#271f50;fill-opacity:1;fill-rule:nonzero;stroke:none"
         id="path158" /><path
         d="m 15886.4,13346.9 c 0,-92 74.5,-166.5 166.5,-166.5 91.9,0 166.5,74.5 166.5,166.5 0,91.9 -74.6,166.5 -166.5,166.5 -92,0 -166.5,-74.6 -166.5,-166.5"
         style="fill:#fca5a4;fill-opacity:1;fill-rule:nonzero;stroke:none"
         id="path160" /></g></g></svg>
