<?xml version="1.0" encoding="UTF-8" standalone="no"?>
<!-- Created with Inkscape (http://www.inkscape.org/) -->

<svg
   version="1.1"
   id="svg2"
   xml:space="preserve"
   width="2666.6667"
   height="2666.6667"
   viewBox="0 0 2666.6667 2666.6667"
   sodipodi:docname="guide.eps"
   xmlns:inkscape="http://www.inkscape.org/namespaces/inkscape"
   xmlns:sodipodi="http://sodipodi.sourceforge.net/DTD/sodipodi-0.dtd"
   xmlns="http://www.w3.org/2000/svg"
   xmlns:svg="http://www.w3.org/2000/svg"><defs
     id="defs6"><clipPath
       clipPathUnits="userSpaceOnUse"
       id="clipPath148"><path
         d="m 3411.47,3095.3 v 0 c -2.7,237.6 -59.42,414.6 -59.93,416.2 0.53,-1.6 57.54,-178.4 59.94,-416.2"
         id="path146" /></clipPath></defs><sodipodi:namedview
     id="namedview4"
     pagecolor="#ffffff"
     bordercolor="#666666"
     borderopacity="1.0"
     inkscape:pageshadow="2"
     inkscape:pageopacity="0.0"
     inkscape:pagecheckerboard="0" /><g
     id="g8"
     inkscape:groupmode="layer"
     inkscape:label="ink_ext_XXXXXX"
     transform="matrix(1.3333333,0,0,-1.3333333,0,2666.6667)"><g
       id="g10"
       transform="scale(0.1)"><path
         d="M 0,0 H 20000 V 20000 H 0 Z"
         style="fill:#ffffff;fill-opacity:1;fill-rule:nonzero;stroke:none"
         id="path12" /><path
         d="m 17841.1,2542.9 c -699.7,74.5 -1858.3,137.2 -3305.4,180 71.4,92.6 113.5,207.3 113.4,331.4 l -4,4056.9 c 1099.3,-134.5 1976.2,-926.1 2163.8,-1937.9 h 401.2 c 780.5,0 1413.2,-589.9 1413.2,-1317.6 v -133.5 c 0,-516.3 -318.5,-963.2 -782.2,-1179.3 M 2888.13,2605.2 C 1997.93,2971.9 1376.72,3802.3 1376.72,4768 v 0.1 c 0,1305.3 1134.91,2363.4 2534.86,2363.4 h 3407.44 l 1.73,-1747.7 H 5873.77 c 0,0.1 0,0.1 0.01,0.1 h -282.16 c -0.88,0 -1.76,0 -2.64,-0.1 h -851.33 c -3.92,0 -7.82,0 -11.71,-0.1 -195.2,-6.5 -351.55,-174.6 -351.55,-381.1 v -2.3 c 0,-13.6 0.68,-27 1.99,-40.2 h 0.01 c 0.03,-0.4 0.06,-0.7 0.09,-1 0.02,-0.1 0.03,-0.2 0.04,-0.3 0.02,-0.2 0.03,-0.3 0.05,-0.5 19.89,-190.8 173.96,-339.3 361.08,-339.3 h 853.97 v 0 h 282.16 v 0 0 h 853.28 v 0 h 594.44 v 0 H 4302.53 c -0.47,0 -0.95,0 -1.42,0 -236.52,-0.8 -389.47,-197.5 -395.94,-441.9 -0.15,-5.4 -0.22,-10.8 -0.22,-16.2 v -2.8 0 c 0,-0.5 0,-0.9 0,-1.4 0,-0.1 0,-0.3 0,-0.5 0.01,-0.3 0.01,-0.5 0.01,-0.8 0,-0.2 0,-0.4 0,-0.7 0,-0.2 0,-0.3 0,-0.5 0.01,-0.3 0.01,-0.6 0.01,-0.9 0,-0.1 0,-0.1 0,-0.2 2.03,-250.1 156.63,-450.8 397.56,-450.8 h 1032.4 v 0 h 341.1 v 0 0 H 6707.6 v 0 h 614.8 v -2.7 H 3351.54 v -188.1 0 0 0 c 0.51,-1.6 57.23,-178.6 59.93,-416.2 v 0 c 1.29,-127.1 -13.04,-271.6 -59.93,-416.1 v 0 -44.5 c -163.53,-9.5 -318.22,-19.4 -463.41,-29.5 M 7317.35,8829.7 H 3353.82 c -1091.92,0 -1977.1,825.3 -1977.1,1843.4 0,1018 885.18,1843.3 1977.1,1843.3 h 412.42 c -192.9,155.7 -315.13,385.5 -315.13,642.1 v 0 c 0,468.9 407.74,849.1 910.68,849.1 h 1372.63 c -138.83,111.4 -227.08,276.1 -227.08,460.3 0,335.5 291.75,607.5 651.61,607.5 h 1442.51 c -173.76,-100 -289.98,-282.6 -289.78,-491.2 l 5.67,-5754.5"
         style="fill:#e9f5f6;fill-opacity:1;fill-rule:nonzero;stroke:none"
         id="path14" /><path
         d="m 9999.99,1971.3 c -4737.7,0 -8578.37,182 -8578.37,406.5 0,84.2 540.73,162.5 1466.51,227.4 312.99,-129 659.28,-200.6 1023.45,-200.6 h 915.46 9484.86 2898.2 c 226.8,0 441.1,49.8 631,138.3 474,-50.4 737.3,-106.3 737.3,-165.1 0,-224.5 -3840.7,-406.5 -8578.41,-406.5"
         style="fill:#dedede;fill-opacity:1;fill-rule:nonzero;stroke:none"
         id="path16" /><path
         d="M 17210.1,2404.6 H 3911.58 c -364.17,0 -710.46,71.6 -1023.45,200.6 145.19,10.1 299.88,20 463.41,29.5 V 2491 h 2432.15 v 0 h 2119.19 c 0.11,0 0.25,0 0.37,0 0.21,0 0.39,0 0.6,0 h 407.36 c 5.67,0 11.31,0.2 16.92,0.4 l 5741.27,5.4 c 191.2,0.2 360.7,89.1 466.3,226.1 1447.1,-42.8 2605.7,-105.5 3305.4,-180 -189.9,-88.5 -404.2,-138.3 -631,-138.3"
         style="fill:#cbd5d6;fill-opacity:1;fill-rule:nonzero;stroke:none"
         id="path18" /><path
         d="m 2160.83,3036.6 c 26.87,19.6 81.4,-3.9 258.55,69.9 258.4,107.6 359.3,663.7 359.3,663.7 -393.19,49.3 -368.31,-517.3 -520.48,-614.2 -68.66,-43.7 -100.97,-86.1 -115.81,-119.4 h 18.44"
         style="fill:#66e8c4;fill-opacity:1;fill-rule:nonzero;stroke:none"
         id="path20" /><path
         d="m 2656.71,3604.6 c -80.84,-164.8 -176.26,-407.9 -337.32,-485.4 -44.94,-21.6 -77.81,-46.1 -102.32,-70.2 38.81,4.8 100.11,14.9 202.31,57.5 258.4,107.6 359.3,663.7 359.3,663.7 0,0 -41.13,-0.8 -121.97,-165.6"
         style="fill:#3fd2c5;fill-opacity:1;fill-rule:nonzero;stroke:none"
         id="path22" /><path
         d="m 1994.98,3036.6 h 42.59 c 27.71,58.9 36.6,169.6 -56.01,372.8 -171.37,376.1 -257.86,863.9 -138.43,1007.4 0,0 -408.97,-291.5 -315.98,-594.7 87.27,-284.6 526.65,-474.2 467.83,-785.5"
         style="fill:#35bfe6;fill-opacity:1;fill-rule:nonzero;stroke:none"
         id="path24" /><path
         d="m 2012.31,3036.6 h 25.29 c 27.7,58.9 36.58,169.6 -56.04,372.8 -171.37,376.1 -257.86,863.9 -138.43,1007.4 0,0 -269.94,-300.2 -167.51,-587.6 101.11,-283.8 412.69,-431.6 336.69,-792.6"
         style="fill:#0a88d2;fill-opacity:1;fill-rule:nonzero;stroke:none"
         id="path26" /><path
         d="m 1591.13,3195.6 c 155.64,-63.4 222.23,-105.6 265.63,-159 h 54.63 c -40.84,123.5 -65.2,255.6 -161.07,355.4 -108.85,113.4 -528.36,300.1 -542.76,321.7 -14.41,21.7 173.35,-432.5 383.57,-518.1"
         style="fill:#49d3d5;fill-opacity:1;fill-rule:nonzero;stroke:none"
         id="path28" /><path
         d="m 1863.37,3071.5 c 3.25,-9.9 8,-21.9 13.64,-34.9 h 34.39 c -40.85,123.5 -65.21,255.6 -161.08,355.4 -108.85,113.4 -528.36,300.1 -542.76,321.7 0,0 203.6,-255.3 430.07,-372 162.14,-83.6 205.05,-207.1 225.74,-270.2"
         style="fill:#0fa1b8;fill-opacity:1;fill-rule:nonzero;stroke:none"
         id="path30" /><path
         d="m 2113.08,3214.9 c -5.25,-74.5 -22.06,-133.9 -39.93,-178.3 h 29.77 c 102.16,131.9 259.29,387.9 229.87,686.8 -43,436.8 -89.78,984.5 -89.78,984.5 0,0 -575,-436 -292.06,-919.6 141.08,-241.1 171.99,-433.4 162.13,-573.4"
         style="fill:#66e8c7;fill-opacity:1;fill-rule:nonzero;stroke:none"
         id="path32" /><path
         d="m 2142.23,4020.8 c 58.3,-362 59.05,-767.3 -33.86,-938.8 16.95,11.9 35.07,24.6 53.61,37.4 93.6,142.6 194.93,358.9 170.81,604 -43,436.8 -89.78,984.5 -89.78,984.5 0,0 -176.66,-216 -100.78,-687.1"
         style="fill:#3fd2c5;fill-opacity:1;fill-rule:nonzero;stroke:none"
         id="path34" /><path
         d="m 2451.09,3063.1 h -654.45 c -58.02,0 -102.03,-52.3 -92.1,-109.4 l 83.63,-481.7 c 13.01,-68.4 72.79,-117.9 142.42,-117.9 h 386.55 c 69.62,0 129.41,49.5 142.41,117.9 l 83.64,481.7 c 9.93,57.1 -34.08,109.4 -92.1,109.4"
         style="fill:#cadbf9;fill-opacity:1;fill-rule:nonzero;stroke:none"
         id="path36" /><path
         d="m 2544.43,2966.4 c 1.89,52 -39.68,96.7 -93.34,96.7 h -654.45 c -53.66,0 -95.23,-44.7 -93.34,-96.7 h 841.13"
         style="fill:#a1b7eb;fill-opacity:1;fill-rule:nonzero;stroke:none"
         id="path38" /><path
         d="m 2451.09,3063.1 h -181.98 c 58.01,0 102.02,-52.3 92.09,-109.4 L 2277.56,2472 c -13,-68.4 -72.78,-117.9 -142.41,-117.9 h 181.99 c 69.62,0 129.41,49.5 142.41,117.9 l 83.64,481.7 c 9.93,57.1 -34.08,109.4 -92.1,109.4"
         style="fill:#a1b7eb;fill-opacity:1;fill-rule:nonzero;stroke:none"
         id="path40" /><path
         d="m 17825.7,3036.6 c 26.9,19.6 81.4,-3.9 258.5,69.9 258.4,107.6 359.4,663.7 359.4,663.7 -393.2,49.3 -368.4,-517.3 -520.5,-614.2 -68.7,-43.7 -101,-86.1 -115.8,-119.4 h 18.4"
         style="fill:#66e8c4;fill-opacity:1;fill-rule:nonzero;stroke:none"
         id="path42" /><path
         d="m 18321.6,3604.6 c -80.9,-164.8 -176.3,-407.9 -337.3,-485.4 -45,-21.6 -77.9,-46.1 -102.4,-70.2 38.9,4.8 100.1,14.9 202.3,57.5 258.4,107.6 359.4,663.7 359.4,663.7 0,0 -41.2,-0.8 -122,-165.6"
         style="fill:#3fd2c5;fill-opacity:1;fill-rule:nonzero;stroke:none"
         id="path44" /><path
         d="m 17659.8,3036.6 h 42.6 c 27.7,58.9 36.6,169.6 -56,372.8 -171.3,376.1 -257.8,863.9 -138.4,1007.4 0,0 -409,-291.5 -316,-594.7 87.3,-284.6 526.7,-474.2 467.8,-785.5"
         style="fill:#35bfe6;fill-opacity:1;fill-rule:nonzero;stroke:none"
         id="path46" /><path
         d="m 17677.2,3036.6 h 25.3 c 27.7,58.9 36.5,169.6 -56.1,372.8 -171.3,376.1 -257.8,863.9 -138.4,1007.4 0,0 -269.9,-300.2 -167.5,-587.6 101.1,-283.8 412.7,-431.6 336.7,-792.6"
         style="fill:#0a88d2;fill-opacity:1;fill-rule:nonzero;stroke:none"
         id="path48" /><path
         d="m 17256,3195.6 c 155.6,-63.4 222.2,-105.6 265.6,-159 h 54.7 c -40.9,123.5 -65.2,255.6 -161.1,355.4 -108.9,113.4 -528.4,300.1 -542.8,321.7 -14.4,21.7 173.4,-432.5 383.6,-518.1"
         style="fill:#49d3d5;fill-opacity:1;fill-rule:nonzero;stroke:none"
         id="path50" /><path
         d="m 17528.2,3071.5 c 3.3,-9.9 8,-21.9 13.7,-34.9 h 34.4 c -40.9,123.5 -65.2,255.6 -161.1,355.4 -108.9,113.4 -528.4,300.1 -542.8,321.7 0,0 203.6,-255.3 430.1,-372 162.1,-83.6 205,-207.1 225.7,-270.2"
         style="fill:#0fa1b8;fill-opacity:1;fill-rule:nonzero;stroke:none"
         id="path52" /><path
         d="m 17777.9,3214.9 c -5.2,-74.5 -22,-133.9 -39.9,-178.3 h 29.8 c 102.2,131.9 259.3,387.9 229.9,686.8 -43.1,436.8 -89.8,984.5 -89.8,984.5 0,0 -575,-436 -292.1,-919.6 141.1,-241.1 172,-433.4 162.1,-573.4"
         style="fill:#66e8c7;fill-opacity:1;fill-rule:nonzero;stroke:none"
         id="path54" /><path
         d="m 17807.1,4020.8 c 58.3,-362 59,-767.3 -33.9,-938.8 17,11.9 35.1,24.6 53.6,37.4 93.6,142.6 195,358.9 170.9,604 -43.1,436.8 -89.8,984.5 -89.8,984.5 0,0 -176.7,-216 -100.8,-687.1"
         style="fill:#3fd2c5;fill-opacity:1;fill-rule:nonzero;stroke:none"
         id="path56" /><path
         d="m 18116,3063.1 h -654.5 c -58,0 -102,-52.3 -92.1,-109.4 L 17453,2472 c 13,-68.4 72.8,-117.9 142.4,-117.9 h 386.6 c 69.6,0 129.4,49.5 142.4,117.9 l 83.7,481.7 c 9.9,57.1 -34.1,109.4 -92.1,109.4"
         style="fill:#cadbf9;fill-opacity:1;fill-rule:nonzero;stroke:none"
         id="path58" /><path
         d="m 18209.3,2966.4 c 1.9,52 -39.7,96.7 -93.3,96.7 h -654.5 c -53.6,0 -95.2,-44.7 -93.3,-96.7 h 841.1"
         style="fill:#a1b7eb;fill-opacity:1;fill-rule:nonzero;stroke:none"
         id="path60" /><path
         d="m 18116,3063.1 h -182 c 58,0 102,-52.3 92.1,-109.4 l -83.7,-481.7 c -13,-68.4 -72.8,-117.9 -142.4,-117.9 h 182 c 69.6,0 129.4,49.5 142.4,117.9 l 83.7,481.7 c 9.9,57.1 -34.1,109.4 -92.1,109.4"
         style="fill:#a1b7eb;fill-opacity:1;fill-rule:nonzero;stroke:none"
         id="path62" /><path
         d="m 7903.85,2491 6165.55,5.8 c 320.5,0.3 580,249.9 579.7,557.5 l -11.4,11536.7 c -0.3,315.8 -267.2,571.4 -596.1,571.1 l -6134.92,-5.7 c -328.92,-0.3 -595.31,-256.5 -595,-572.2 l 11.37,-11536.7 c 0.3,-307.6 260.34,-556.8 580.8,-556.5"
         style="fill:#5283a8;fill-opacity:1;fill-rule:nonzero;stroke:none"
         id="path64" /><path
         d="m 8118.88,2604.3 5878.72,5.5 c 306.3,0.3 554.4,243 554.1,542.1 l -11,11243.8 c -0.3,307.1 -255.4,555.7 -569.9,555.4 l -5849.41,-5.5 c -314.4,-0.3 -569.03,-249.4 -568.73,-556.4 l 11.07,-11243.8 c 0.3,-299.1 248.85,-541.4 555.15,-541.1"
         style="fill:#92bff7;fill-opacity:1;fill-rule:nonzero;stroke:none"
         id="path66" /><path
         d="m 7905.17,3127.7 6304.33,6.5 -10.3,11414.5 -6304.25,-6.5 10.22,-11414.5"
         style="fill:#1d3b77;fill-opacity:1;fill-rule:nonzero;stroke:none"
         id="path68" /><path
         d="m 10070.6,14683.2 1975.5,1.9 -0.2,141 -1975.5,-1.9 0.2,-141"
         style="fill:#5f9bdd;fill-opacity:1;fill-rule:nonzero;stroke:none"
         id="path70" /><path
         d="m 10361.8,2736.3 1393.1,1.3 c 58.2,0 105.4,32.1 105.3,71.6 l -0.1,120.5 c 0,39.5 -47.2,71.5 -105.5,71.5 l -1393,-1.3 c -58.2,-0.1 -105.4,-32.2 -105.3,-71.7 l 0.1,-120.5 c 0,-39.5 47.2,-71.5 105.4,-71.4"
         style="fill:#5f9bdd;fill-opacity:1;fill-rule:nonzero;stroke:none"
         id="path72" /><path
         d="m 8597.29,13741.2 v -367.9 c 0,-123.5 51.47,-180.6 129.16,-180.6 83.3,0 132.9,57.1 132.9,180.6 v 367.9 h 115.14 v -360.4 c 0,-194.7 -100.15,-280.8 -251.78,-280.8 -146.02,0 -240.56,81.5 -240.56,279.9 v 361.3 h 115.14"
         style="fill:#ffffff;fill-opacity:1;fill-rule:nonzero;stroke:none"
         id="path74" /><path
         d="m 9103.68,13235.8 c 37.43,-21.6 93.6,-40.3 152.57,-40.3 73.94,0 115.12,34.6 115.12,86.1 0,47.8 -31.82,75.8 -112.32,104.8 -103.89,37.5 -170.34,92.7 -170.34,183.5 0,103 86.11,181.6 222.75,181.6 68.33,0 118.89,-15 151.64,-31.8 l -28.09,-92.7 c -22.46,12.2 -66.46,29.9 -125.42,29.9 -72.99,0 -104.83,-39.3 -104.83,-75.8 0,-48.6 36.5,-71.1 120.75,-103.9 109.5,-41.1 162.85,-96.4 162.85,-187.2 0,-101 -76.74,-189 -239.61,-189 -66.45,0 -135.72,18.7 -170.34,39.3 l 25.27,95.5"
         style="fill:#ffffff;fill-opacity:1;fill-rule:nonzero;stroke:none"
         id="path76" /><path
         d="m 9945.16,13390.2 h -237.74 v -185.3 h 265.82 v -94.6 H 9592.3 v 630.9 h 366.9 v -94.6 h -251.78 v -162.8 h 237.74 v -93.6"
         style="fill:#ffffff;fill-opacity:1;fill-rule:nonzero;stroke:none"
         id="path78" /><path
         d="m 10188.6,13453.8 h 68.3 c 77.7,0 126.3,41.2 126.3,103.9 0,69.3 -48.6,101.1 -123.5,101.1 -36.5,0 -59.9,-2.8 -71.1,-5.6 z m -114.2,279 c 43,7.5 107.6,13.1 174.1,13.1 90.7,0 152.5,-15 194.6,-50.6 34.7,-29 54.3,-73 54.3,-126.3 0,-81.5 -55.2,-136.7 -114.2,-158.2 v -2.8 c 45,-16.9 72.1,-60.9 88,-121.7 19.7,-78.6 36.5,-151.6 49.6,-176 H 10402 c -9.4,18.8 -24.4,70.2 -42.2,148.8 -17.7,82.4 -47.7,108.6 -113.2,110.5 h -58 v -259.3 h -114.2 v 622.5"
         style="fill:#ffffff;fill-opacity:1;fill-rule:nonzero;stroke:none"
         id="path80" /><path
         d="m 9015.66,12314.7 c -3.74,81.4 -8.42,179.7 -7.48,264.8 h -2.81 c -20.6,-76.7 -46.8,-161.9 -74.87,-241.4 l -91.73,-273.3 h -88.93 l -84.24,269.5 c -24.34,80.5 -46.79,166.6 -63.64,245.2 h -1.87 c -2.8,-82.3 -6.56,-182.5 -11.23,-268.6 l -14.04,-253.6 h -107.64 l 42.12,630.8 h 151.63 l 82.36,-253.6 c 22.47,-74 42.12,-148.8 58.03,-219.1 h 2.82 c 16.83,68.4 38.37,146.1 62.71,220 l 87.04,252.7 h 149.76 l 36.51,-630.8 h -112.32 l -12.18,257.4"
         style="fill:#ffffff;fill-opacity:1;fill-rule:nonzero;stroke:none"
         id="path82" /><path
         d="m 9558.59,12323.1 -49.6,155.4 c -12.17,38.3 -22.47,81.4 -31.83,117.9 h -1.87 c -9.37,-36.5 -18.72,-80.5 -29.95,-117.9 l -48.67,-155.4 z m -180.65,-87.1 -54.27,-178.7 h -118.88 l 202.17,630.8 h 146.95 l 204.99,-630.8 h -123.55 l -57.1,178.7 h -200.31"
         style="fill:#ffffff;fill-opacity:1;fill-rule:nonzero;stroke:none"
         id="path84" /><path
         d="m 9846.91,12057.3 v 630.8 h 131.03 l 162.86,-270.5 c 42.1,-70.2 78.6,-143.2 107.6,-211.5 h 1.9 c -7.5,84.2 -10.3,165.7 -10.3,262.1 v 219.9 h 106.7 v -630.8 h -118.8 l -164.8,277 c -40.2,69.3 -82.34,147 -113.24,218.1 l -2.8,-0.9 c 4.67,-81.5 5.62,-164.8 5.62,-268.7 v -225.5 h -105.77"
         style="fill:#ffffff;fill-opacity:1;fill-rule:nonzero;stroke:none"
         id="path86" /><path
         d="m 10593.9,12688.1 v -367.8 c 0,-123.6 51.4,-180.7 129.1,-180.7 83.3,0 132.9,57.1 132.9,180.7 v 367.8 h 115.2 v -360.3 c 0,-194.7 -100.2,-280.8 -251.8,-280.8 -146,0 -240.6,81.4 -240.6,279.8 v 361.3 h 115.2"
         style="fill:#ffffff;fill-opacity:1;fill-rule:nonzero;stroke:none"
         id="path88" /><path
         d="m 11380.1,12323.1 -49.6,155.4 c -12.2,38.3 -22.5,81.4 -31.8,117.9 h -1.9 c -9.3,-36.5 -18.7,-80.5 -29.9,-117.9 l -48.7,-155.4 z m -180.6,-87.1 -54.3,-178.7 h -118.9 l 202.2,630.8 h 146.9 l 205,-630.8 h -123.5 l -57.1,178.7 h -200.3"
         style="fill:#ffffff;fill-opacity:1;fill-rule:nonzero;stroke:none"
         id="path90" /><path
         d="m 11668.4,12688.1 h 115.2 v -534.4 h 259.2 v -96.4 h -374.4 v 630.8"
         style="fill:#ffffff;fill-opacity:1;fill-rule:nonzero;stroke:none"
         id="path92" /><path
         d="m 9948.34,7053.4 h -1433.6 c -26.26,0 -47.56,-21.3 -47.56,-47.5 v -158.3 c 0,-26.3 21.29,-47.6 47.56,-47.6 h 1433.61 c 26.26,0 47.55,21.3 47.55,47.5 v 158.4 c 0,26.2 -21.29,47.5 -47.56,47.5"
         style="fill:#a2c5e9;fill-opacity:1;fill-rule:nonzero;stroke:none"
         id="path94" /><path
         d="m 11180.3,7053.4 h -905.5 c -26.2,0 -47.5,-21.2 -47.5,-47.5 v -158.3 c 0,-26.3 21.3,-47.6 47.6,-47.6 h 905.4 c 26.3,0 47.6,21.3 47.6,47.6 v 158.3 c 0,26.2 -21.3,47.5 -47.6,47.5"
         style="fill:#a2c5e9;fill-opacity:1;fill-rule:nonzero;stroke:none"
         id="path96" /><path
         d="M 10384.7,6527.1 H 8514.74 c -26.26,0 -47.56,-21.3 -47.56,-47.6 v -158.3 c 0,-26.3 21.3,-47.5 47.56,-47.5 h 1869.96 c 26.3,0 47.6,21.2 47.6,47.5 v 158.3 c 0,26.3 -21.3,47.6 -47.6,47.6"
         style="fill:#a2c5e9;fill-opacity:1;fill-rule:nonzero;stroke:none"
         id="path98" /><path
         d="m 11980.6,6527.1 h -1269.7 c -31.8,0 -57.7,-25.8 -57.7,-57.7 v -138.1 c 0,-31.8 25.9,-57.6 57.7,-57.6 h 1269.7 c 31.9,0 57.7,25.8 57.7,57.6 v 138.1 c 0,31.9 -25.8,57.7 -57.7,57.7"
         style="fill:#a2c5e9;fill-opacity:1;fill-rule:nonzero;stroke:none"
         id="path100" /><path
         d="M 13572.3,9697.7 H 9460.54 c -8.7,0 -15.75,7.1 -15.75,15.8 v 200.7 c 0,8.7 7.05,15.7 15.75,15.7 h 4111.76 c 8.6,0 15.7,-7 15.7,-15.7 v -200.7 c 0,-8.7 -7.1,-15.8 -15.7,-15.8"
         style="fill:#a2c5e9;fill-opacity:1;fill-rule:nonzero;stroke:none"
         id="path102" /><path
         d="m 9239.92,9494.5 h -637.84 c -7.67,0 -13.88,6.2 -13.88,13.9 v 610.9 c 0,7.6 6.21,13.9 13.88,13.9 h 637.84 c 7.66,0 13.87,-6.3 13.87,-13.9 v -610.9 c 0,-7.7 -6.21,-13.9 -13.87,-13.9"
         style="fill:#a2c5e9;fill-opacity:1;fill-rule:nonzero;stroke:none"
         id="path104" /><path
         d="M 13572.3,8768.8 H 9460.54 c -8.7,0 -15.75,7 -15.75,15.7 v 200.7 c 0,8.7 7.05,15.8 15.75,15.8 h 4111.76 c 8.6,0 15.7,-7.1 15.7,-15.8 v -200.7 c 0,-8.7 -7.1,-15.7 -15.7,-15.7"
         style="fill:#a2c5e9;fill-opacity:1;fill-rule:nonzero;stroke:none"
         id="path106" /><path
         d="m 9239.92,8565.5 h -637.84 c -7.67,0 -13.88,6.2 -13.88,13.9 v 610.9 c 0,7.7 6.21,13.9 13.88,13.9 h 637.84 c 7.66,0 13.87,-6.2 13.87,-13.9 v -610.9 c 0,-7.7 -6.21,-13.9 -13.87,-13.9"
         style="fill:#a2c5e9;fill-opacity:1;fill-rule:nonzero;stroke:none"
         id="path108" /><path
         d="M 13572.3,7839.8 H 9460.54 c -8.7,0 -15.75,7 -15.75,15.7 v 200.8 c 0,8.7 7.05,15.7 15.75,15.7 h 4111.76 c 8.6,0 15.7,-7 15.7,-15.7 v -200.8 c 0,-8.7 -7.1,-15.7 -15.7,-15.7"
         style="fill:#a2c5e9;fill-opacity:1;fill-rule:nonzero;stroke:none"
         id="path110" /><path
         d="m 9239.92,7636.6 h -637.84 c -7.67,0 -13.88,6.2 -13.88,13.9 v 610.9 c 0,7.6 6.21,13.8 13.88,13.8 h 637.84 c 7.66,0 13.87,-6.2 13.87,-13.8 v -611 c 0,-7.6 -6.21,-13.8 -13.87,-13.8"
         style="fill:#a2c5e9;fill-opacity:1;fill-rule:nonzero;stroke:none"
         id="path112" /><path
         d="M 13533.6,10786.3 H 8475.05 c -4.34,0 -7.87,3.6 -7.87,7.9 v 100.4 c 0,4.3 3.53,7.8 7.88,7.8 h 5058.54 c 4.3,0 7.8,-3.5 7.8,-7.8 v -100.4 c 0,-4.3 -3.5,-7.9 -7.8,-7.9"
         style="fill:#a2c5e9;fill-opacity:1;fill-rule:nonzero;stroke:none"
         id="path114" /><path
         d="M 12628.2,4213.3 H 9504.21 c -133.59,0 -241.9,108.3 -241.9,241.9 v 418.7 c 0,133.6 108.31,241.9 241.9,241.9 h 3123.99 c 133.6,0 241.9,-108.3 241.9,-241.9 v -418.7 c 0,-133.6 -108.3,-241.9 -241.9,-241.9"
         style="fill:#f97450;fill-opacity:1;fill-rule:nonzero;stroke:none"
         id="path116" /><path
         d="m 9904.16,4538.9 c 10.31,-1.8 25.31,-2.3 41.25,-2.3 87.19,0 134.49,48.7 134.49,134 0.5,74.6 -41.7,121.9 -127.93,121.9 -21.1,0 -37.03,-1.9 -47.81,-4.2 z m -40.79,279.4 c 24.85,3.8 54.38,6.6 86.72,6.6 58.61,0 100.31,-13.6 128.01,-39.4 28.1,-25.8 44.5,-62.4 44.5,-113.4 0,-51.6 -15.9,-93.8 -45.5,-122.9 -29.5,-29.5 -78.26,-45.4 -139.67,-45.4 -29.06,0 -53.43,1.4 -74.06,3.7 v 310.8"
         style="fill:#ffffff;fill-opacity:1;fill-rule:nonzero;stroke:none"
         id="path118" /><path
         d="m 10200.4,4662.7 c 0,-67.5 36.6,-128 100.8,-128 64.7,0 101.2,59.5 101.2,131.3 0,62.8 -32.8,128.4 -100.7,128.4 -67.5,0 -101.3,-62.3 -101.3,-131.7 z m 245.1,5.1 c 0,-108.7 -66,-166.4 -146.7,-166.4 -83.4,0 -142,64.7 -142,160.3 0,100.4 62.4,166 146.7,166 86.3,0 142,-66.1 142,-159.9"
         style="fill:#ffffff;fill-opacity:1;fill-rule:nonzero;stroke:none"
         id="path120" /><path
         d="m 10550.1,4506.6 -80.1,315.9 h 43.1 l 37.5,-159.8 c 9.3,-39.4 17.8,-78.8 23.4,-109.2 h 0.9 c 5.2,31.4 15,68.9 25.8,109.6 l 42.2,159.4 h 42.7 l 38.4,-160.3 c 8.9,-37.5 17.3,-75 22,-108.3 h 1 c 6.5,34.7 15.4,69.9 25.3,109.2 l 41.7,159.4 h 41.7 l -89.5,-315.9 h -42.7 l -39.8,164.5 c -9.9,40.3 -16.4,71.3 -20.6,103.1 h -1 c -5.6,-31.4 -12.6,-62.3 -24.3,-103.1 l -45,-164.5 h -42.7"
         style="fill:#ffffff;fill-opacity:1;fill-rule:nonzero;stroke:none"
         id="path122" /><path
         d="m 10895.1,4506.6 v 315.9 h 44.5 l 101.3,-159.8 c 23.4,-37.1 41.7,-70.3 56.7,-102.7 l 0.9,0.5 c -3.7,42.2 -4.6,80.6 -4.6,129.8 v 132.2 h 38.4 v -315.9 h -41.3 l -100.3,160.3 c -22,35.2 -43.1,71.2 -59,105.5 l -1.4,-0.5 c 2.3,-39.8 3.2,-77.8 3.2,-130.3 v -135 h -38.4"
         style="fill:#ffffff;fill-opacity:1;fill-rule:nonzero;stroke:none"
         id="path124" /><path
         d="m 11203.5,4822.5 h 40.8 v -281.7 h 135 v -34.2 h -175.8 v 315.9"
         style="fill:#ffffff;fill-opacity:1;fill-rule:nonzero;stroke:none"
         id="path126" /><path
         d="m 11431.4,4662.7 c 0,-67.5 36.5,-128 100.7,-128 64.7,0 101.3,59.5 101.3,131.3 0,62.8 -32.8,128.4 -100.8,128.4 -67.5,0 -101.2,-62.3 -101.2,-131.7 z m 245.1,5.1 c 0,-108.7 -66.1,-166.4 -146.7,-166.4 -83.4,0 -142,64.7 -142,160.3 0,100.4 62.3,166 146.7,166 86.2,0 142,-66.1 142,-159.9"
         style="fill:#ffffff;fill-opacity:1;fill-rule:nonzero;stroke:none"
         id="path128" /><path
         d="m 11877.6,4637.8 -30.9,91 c -7,20.6 -11.7,39.3 -16.4,57.6 h -1 c -4.6,-18.7 -9.8,-37.9 -15.9,-57.2 l -30.9,-91.4 z m -103.6,-31.8 -32.8,-99.4 h -42.2 l 107.4,315.9 h 49.2 l 107.8,-315.9 h -43.6 l -33.7,99.4 H 11774"
         style="fill:#ffffff;fill-opacity:1;fill-rule:nonzero;stroke:none"
         id="path130" /><path
         d="m 12050.6,4538.9 c 10.3,-1.8 25.3,-2.3 41.2,-2.3 87.2,0 134.6,48.7 134.6,134 0.4,74.6 -41.7,121.9 -128,121.9 -21.1,0 -37,-1.9 -47.8,-4.2 z m -40.8,279.4 c 24.9,3.8 54.4,6.6 86.7,6.6 58.6,0 100.3,-13.6 128,-39.4 28.1,-25.8 44.5,-62.4 44.5,-113.4 0,-51.6 -15.9,-93.8 -45.4,-122.9 -29.6,-29.5 -78.3,-45.4 -139.7,-45.4 -29.1,0 -53.5,1.4 -74.1,3.7 v 310.8"
         style="fill:#ffffff;fill-opacity:1;fill-rule:nonzero;stroke:none"
         id="path132" /><path
         d="m 3351.54,3511.5 v 188.1 h 4959.67 c 254.89,0 461.51,-269.7 461.51,-602.4 v -3.7 c 0,-332.7 -206.62,-602.5 -461.51,-602.5 H 3351.54 v 188.2 c 154.32,424.6 0,832.3 0,832.3"
         style="fill:#f85427;fill-opacity:1;fill-rule:nonzero;stroke:none"
         id="path134" /><path
         d="M 8311.21,3699.6 H 6308.59 c -7.78,-30.6 -12.23,-62.7 -12.23,-96.1 v -550.1 c 0,-194.3 141.24,-351.8 315.46,-351.8 h 2049.74 c 69.24,105.3 111.17,242.2 111.17,391.9 v 3.7 c 0,332.7 -206.63,602.4 -461.52,602.4"
         style="fill:#ff6c3c;fill-opacity:1;fill-rule:nonzero;stroke:none"
         id="path136" /><path
         d="m 3351.54,3699.6 h 2432.15 c 203.81,0 369.01,-215.6 369.01,-481.7 v -245.2 c 0,-266 -165.2,-481.7 -369.01,-481.7 H 3351.54 v 188.2 c 154.32,424.6 0,832.3 0,832.3 v 188.1"
         style="fill:#d83a21;fill-opacity:1;fill-rule:nonzero;stroke:none"
         id="path138" /><path
         d="m 5757.69,3511.5 c 140.35,0 254.12,-148.5 254.12,-331.7 v -168.9 c 0,-183.2 -113.77,-331.7 -254.12,-331.7 H 3351.54 c 135.03,416.1 0,832.3 0,832.3 h 2406.15"
         style="fill:#edf0ef;fill-opacity:1;fill-rule:nonzero;stroke:none"
         id="path140" /><g
         id="g142"><g
           id="g144"
           clip-path="url(#clipPath148)"><path
             d="m 3351.54,3095.3 h 59.9414 v 416.199 H 3351.54 Z"
             style="fill:#e0e4e2;fill-opacity:1;fill-rule:nonzero;stroke:none"
             id="path150" /></g></g><path
         d="M 6011.81,3095.3 H 3411.47 c -2.39,237.8 -59.4,414.6 -59.93,416.2 v 0 h 2406.15 c 140.35,0 254.12,-148.5 254.12,-331.7 v -84.5"
         style="fill:#e1e4e1;fill-opacity:1;fill-rule:nonzero;stroke:none"
         id="path152" /><path
         d="m 8641.41,5264.8 v 119 H 4737.65 c -200.62,0 -363.26,-170.6 -363.26,-381.2 v -2.3 c 0,-210.6 162.64,-381.3 363.26,-381.3 h 3903.76 v 119.1 c -121.46,268.7 0,526.7 0,526.7"
         style="fill:#fab001;fill-opacity:1;fill-rule:nonzero;stroke:none"
         id="path154" /><path
         d="m 4737.65,5383.8 h 1576.26 c 6.13,-19.3 9.64,-39.7 9.64,-60.8 v -348.1 c 0,-123 -111.18,-222.7 -248.31,-222.7 H 4461.89 c -54.5,66.7 -87.5,153.3 -87.5,248.1 v 2.3 c 0,210.6 162.64,381.2 363.26,381.2"
         style="fill:#ffc71f;fill-opacity:1;fill-rule:nonzero;stroke:none"
         id="path156" /><path
         d="m 5873.77,5383.8 h -284.79 c 0.88,0.1 1.76,0.1 2.64,0.1 h 282.16 c -0.01,0 -0.01,0 -0.01,-0.1"
         style="fill:#cbd5d6;fill-opacity:1;fill-rule:nonzero;stroke:none"
         id="path158" /><path
         d="m 5873.78,4619 h -282.16 c -109.88,0 -194.81,51.8 -249.15,133.2 h 402.04 c 33.4,-55.6 77.72,-101.5 129.27,-133.2"
         style="fill:#da9a06;fill-opacity:1;fill-rule:nonzero;stroke:none"
         id="path160" /><path
         d="m 5744.51,4752.2 h -402.04 c -44.87,67.3 -68.87,154.7 -68.87,250 v 3.9 c 0,209.7 116.37,376.3 315.38,377.7 h 284.79 c -116.36,-71.6 -195.94,-215.2 -195.94,-381 v -2.7 c 0,-92.4 24.69,-177.9 66.68,-247.9"
         style="fill:#deae1f;fill-opacity:1;fill-rule:nonzero;stroke:none"
         id="path162" /><path
         d="M 8641.41,5383.8 H 6727.06 c -160.41,0 -290.45,-136.4 -290.45,-304.8 v -155.2 c 0,-168.3 130.04,-304.8 290.45,-304.8 h 1914.35 v 119.1 c -121.46,268.7 0,526.7 0,526.7 v 119"
         style="fill:#ea9d03;fill-opacity:1;fill-rule:nonzero;stroke:none"
         id="path164" /><path
         d="m 6747.53,5264.8 c -110.47,0 -200.01,-94 -200.01,-209.9 V 4948 c 0,-115.9 89.54,-209.9 200.01,-209.9 h 1893.88 c -106.27,263.3 0,526.7 0,526.7 H 6747.53"
         style="fill:#edf0ef;fill-opacity:1;fill-rule:nonzero;stroke:none"
         id="path166" /><path
         d="m 8594.25,5001.4 v 0 c 1.88,151.2 47.16,263.4 47.16,263.4 v 0 c 0,0 -45.04,-112.3 -47.16,-263.4"
         style="fill:#bdc5cd;fill-opacity:1;fill-rule:nonzero;stroke:none"
         id="path168" /><path
         d="M 8594.25,5001.4 H 6547.52 v 53.5 c 0,115.9 89.54,209.9 200.01,209.9 h 1893.88 c 0,0 -45.28,-112.2 -47.17,-263.4"
         style="fill:#e1e4e1;fill-opacity:1;fill-rule:nonzero;stroke:none"
         id="path170" /><path
         d="M 9021.92,4476.2 V 4619 H 4302.53 c -242.53,0 -397.58,-205.7 -397.58,-458.1 v -2.8 c 0,-252.4 155.05,-455.8 397.58,-455.8 H 9021.92 V 3845 c -146.84,322.1 0,631.2 0,631.2"
         style="fill:#4796eb;fill-opacity:1;fill-rule:nonzero;stroke:none"
         id="path172" /><path
         d="m 3904.95,4160.9 v -2.8 c 0,-103.4 26.36,-198.2 73.72,-274.5 h 2002.97 c 131.22,0 237.59,118.5 237.59,264.7 V 4619 h -1916.7 c -242.54,0 -397.58,-205.7 -397.58,-458.1"
         style="fill:#60abef;fill-opacity:1;fill-rule:nonzero;stroke:none"
         id="path174" /><path
         d="m 5676.03,3702.3 h -341.1 c -143.06,0 -270.14,71.1 -350.32,181.3 h 522.73 c 41.49,-76.5 99.75,-139.3 168.69,-181.3"
         style="fill:#4284cd;fill-opacity:1;fill-rule:nonzero;stroke:none"
         id="path176" /><path
         d="m 5507.34,3883.6 h -522.73 c -55.75,76.6 -88.84,172.1 -88.84,275.6 v 2.8 c 0,252.4 196.62,457 439.16,457 h 341.1 c -140.67,-85.8 -236.89,-258 -236.89,-456.8 v -3.2 c 0,-101.3 25.02,-195.8 68.2,-275.4"
         style="fill:#5796d0;fill-opacity:1;fill-rule:nonzero;stroke:none"
         id="path178" /><path
         d="M 9021.92,4619 H 6707.6 c -193.93,0 -351.13,-163.6 -351.13,-365.4 v -186 c 0,-201.8 157.2,-365.3 351.13,-365.3 H 9021.92 V 3845 c -146.84,322.1 0,631.2 0,631.2 V 4619"
         style="fill:#5384cc;fill-opacity:1;fill-rule:nonzero;stroke:none"
         id="path180" /><path
         d="m 6732.34,4476.2 c -133.56,0 -241.81,-112.6 -241.81,-251.5 v -128.1 c 0,-139 108.25,-251.6 241.81,-251.6 h 2289.58 c -128.48,315.6 0,631.2 0,631.2 H 6732.34"
         style="fill:#edf0ef;fill-opacity:1;fill-rule:nonzero;stroke:none"
         id="path182" /><path
         d="m 8964.9,4160.6 v 0 c 2.28,181.2 57.02,315.6 57.02,315.6 v 0 c 0,0 -54.44,-134.6 -57.02,-315.6"
         style="fill:#bdc5cd;fill-opacity:1;fill-rule:nonzero;stroke:none"
         id="path184" /><path
         d="M 8964.9,4160.6 H 6490.53 v 64.1 c 0,138.9 108.25,251.5 241.81,251.5 h 2289.58 c 0,0 -54.74,-134.4 -57.03,-315.6"
         style="fill:#e1e4e1;fill-opacity:1;fill-rule:nonzero;stroke:none"
         id="path186" /><path
         d="m 6806.56,4253.6 c 0,0 23.26,-30.2 26.16,-99.8 2.91,-69.6 34.89,-151.3 34.89,-151.3 l 75.59,78.7 81.42,-78.7 c 0,0 -26.17,96.8 -26.17,148.3 0,51.4 -40.71,102.8 -40.71,102.8 h -151.18"
         style="fill:#022fa0;fill-opacity:1;fill-rule:nonzero;stroke:none"
         id="path188" /><path
         d="m 6990.59,6413.4 c -12.81,-36.1 -160.99,-131.2 -222.98,-51.4 -107.25,187.7 -225.46,448.9 -331.62,634.9 -22.16,38.8 15.3,190.7 21.96,208 8.83,23 166.74,-2 194.25,-43 143.01,-213.2 241.27,-425.9 278.63,-519.2 35.92,-89.7 72.58,-193.1 59.76,-229.3"
         style="fill:#ff77c4;fill-opacity:1;fill-rule:nonzero;stroke:none"
         id="path190" /><path
         d="m 7167.49,7049.1 c -3.77,-15.1 -91.24,-23.9 -108.59,-8 -8.11,7.4 -20.29,22.4 -32.85,39.3 -131.56,-340 -216.75,-472.4 -263.96,-586.4 -55.94,-200.1 196.17,-237.5 263.02,-10.3 15.32,52 129.27,501 158.06,614.6 -7.39,-22.9 -13.95,-42.2 -15.68,-49.2"
         style="fill:#fead82;fill-opacity:1;fill-rule:nonzero;stroke:none"
         id="path192" /><path
         d="m 7016.79,7189 c 0,0 51.64,239.8 57.81,271.1 6.19,31.4 42.35,33 37.17,-1.3 -5.18,-34.2 -27.4,-250.3 -29.7,-277.9 -2.3,-27.6 -67.39,-26.4 -65.28,8.1"
         style="fill:#fead82;fill-opacity:1;fill-rule:nonzero;stroke:none"
         id="path194" /><path
         d="m 7058.9,7041.1 c -17.35,15.8 -53.47,66.8 -71.89,96.2 -18.43,29.4 -2.03,96.6 61.78,99.5 63.82,3 166.1,-15.5 157.46,-57.6 -8.64,-42 -35,-114.9 -38.76,-130.1 -3.77,-15.1 -91.24,-23.9 -108.59,-8"
         style="fill:#fead82;fill-opacity:1;fill-rule:nonzero;stroke:none"
         id="path196" /><path
         d="m 6989.27,7132.9 c 0,0 -13.92,25 -25.01,43.2 -5.4,8.9 -2.72,15.4 0.6,50.8 3.31,35.5 8.07,58.6 8.07,58.6 0,0 90.94,7.2 106.57,7.9 15.63,0.8 16.14,-43.7 -29.92,-53.6 l -24.1,-8.1 c 0,0 26.52,-32.6 26.19,-69.5 -0.33,-36.8 -45.19,-56.1 -62.4,-29.3"
         style="fill:#fead82;fill-opacity:1;fill-rule:nonzero;stroke:none"
         id="path198" /><path
         d="m 7141.9,7333.4 c -13.63,10.8 -31.27,8.8 -43.5,1.9 -10.98,-6.2 -12.67,-108.3 -15.09,-138.9 -3.09,-25.2 39.28,-40.3 45,-0.7 5.72,39.7 22.35,130.8 13.59,137.7"
         style="fill:#ffbd99;fill-opacity:1;fill-rule:nonzero;stroke:none"
         id="path200" /><path
         d="m 7188.88,7309.3 c -4.28,14.3 -35.55,12.9 -43.51,1.9 -6.76,-9.3 -17.16,-118.8 -21.09,-144.1 -1.62,-13.5 34.35,-32.4 40.07,7.2 5.72,39.7 27.47,125.3 24.53,135"
         style="fill:#ffbd99;fill-opacity:1;fill-rule:nonzero;stroke:none"
         id="path202" /><path
         d="m 7226.5,7275.6 c -5.42,15.5 -28.08,17.1 -37.37,5.9 -6.6,-7.9 -22.09,-91.1 -23.1,-115.1 -3.17,-13.8 19.7,-31.9 31.19,3.7 11.5,35.6 32.24,97.1 29.28,105.5"
         style="fill:#ffbd99;fill-opacity:1;fill-rule:nonzero;stroke:none"
         id="path204" /><path
         d="m 7062.4,7243.7 c -0.42,1.1 -1.76,1.7 -2.99,1.4 l -37.6,-12.3 1.73,-2.3 c 38.74,-53 22.06,-85.1 21.89,-85.4 -0.59,-1.1 -0.14,-2.4 1.02,-3 l 1.07,-0.2 2.08,1.2 c 0.75,1.4 17.77,33.6 -20.46,87.5 l 31.81,10.3 c 1.22,0.4 1.88,1.6 1.45,2.8"
         style="fill:#ba6549;fill-opacity:1;fill-rule:nonzero;stroke:none"
         id="path206" /><path
         d="m 6784.53,4004.3 c 0,0 -13.51,-49.1 -12.62,-101.9 l -68.98,16.2 4.19,86.8 77.41,-1.1"
         style="fill:#e2a36a;fill-opacity:1;fill-rule:nonzero;stroke:none"
         id="path208" /><path
         d="m 6920.79,3867 c -1.14,-14 -222.99,-2.8 -222.99,-2.8 l 5.13,54.4 70,-1 c 0,0 149,-36.7 147.86,-50.6"
         style="fill:#e2a36a;fill-opacity:1;fill-rule:nonzero;stroke:none"
         id="path210" /><path
         d="m 6697.2,3864.6 3.5,30.3 c 0,0 12.84,-17.1 80.66,-18.1 59.75,-0.8 66.77,20.5 66.77,20.5 55.78,-16.9 87,-20.1 78.9,-31.5 -10.45,-14.7 -229.83,-1.2 -229.83,-1.2"
         style="fill:#2d313d;fill-opacity:1;fill-rule:nonzero;stroke:none"
         id="path212" /><path
         d="m 6707.12,4005.4 -3.29,-72.7 c 0,0 32.42,19.6 68.75,-0.9 0,0 5.66,53.7 11.95,72.5 l -77.41,1.1"
         style="fill:#d38753;fill-opacity:1;fill-rule:nonzero;stroke:none"
         id="path214" /><path
         d="m 7108.19,3999.8 c 0,0 -13.51,-49.2 -12.61,-102 l -68.98,16.2 4.18,86.9 77.41,-1.1"
         style="fill:#e2a36a;fill-opacity:1;fill-rule:nonzero;stroke:none"
         id="path216" /><path
         d="m 7244.45,3862.4 c -1.13,-13.9 -222.98,-2.8 -222.98,-2.8 l 5.13,54.4 70,-0.9 c 0,0 148.99,-36.7 147.85,-50.7"
         style="fill:#e2a36a;fill-opacity:1;fill-rule:nonzero;stroke:none"
         id="path218" /><path
         d="m 7020.86,3860 3.51,30.3 c 0,0 12.83,-17.1 80.65,-18 59.76,-0.9 66.78,20.4 66.78,20.4 55.76,-16.8 87,-20 78.89,-31.4 -10.44,-14.7 -229.83,-1.3 -229.83,-1.3"
         style="fill:#2d313d;fill-opacity:1;fill-rule:nonzero;stroke:none"
         id="path220" /><path
         d="m 7030.78,4000.9 -3.29,-72.7 c 0,0 32.43,19.6 68.76,-1 0,0 5.66,53.8 11.94,72.6 l -77.41,1.1"
         style="fill:#d38753;fill-opacity:1;fill-rule:nonzero;stroke:none"
         id="path222" /><path
         d="m 6695.83,5911.9 c 0,0 -434.76,-123.2 -376.58,-522.9 l 1119.22,-15.7 c 0,0 35.01,171.6 -35.1,250 -69.48,77.8 -707.54,288.6 -707.54,288.6"
         style="fill:#476291;fill-opacity:1;fill-rule:nonzero;stroke:none"
         id="path224" /><path
         d="m 7435.68,5373.4 c 0,0 -153.71,-438.4 -318.78,-1412.5 l -112.56,1.6 c 0,0 -69.63,729.5 -49.76,925.9 19.86,196.4 168.28,504.8 168.28,504.8 0,0 214.01,45.6 312.82,-19.8"
         style="fill:#476291;fill-opacity:1;fill-rule:nonzero;stroke:none"
         id="path226" /><path
         d="m 6695.83,5383.7 422.6,-3.3 c 0,0 -153.26,-309 -163.85,-492 -10.59,-183 49.76,-925.9 49.76,-925.9 l 46.87,-0.7 c 0,0 -26.12,787.6 -11.48,914.3 14.65,126.6 185.62,541.5 177.41,569.5 -8.21,28.1 -535.07,183.9 -535.07,183.9 l 13.76,-245.8"
         style="fill:#3e5c87;fill-opacity:1;fill-rule:nonzero;stroke:none"
         id="path228" /><path
         d="m 6695.83,5911.9 -884.15,12.4 627.4,-327.6 z"
         style="fill:#3e5c87;fill-opacity:1;fill-rule:nonzero;stroke:none"
         id="path230" /><path
         d="m 5811.68,5924.3 c 0,0 -129.27,-209.4 -35.46,-527.7 l 1310.3,-18.3 c 0,0 29.03,174.7 -44.32,250.1 -102.19,105.1 -861.46,203 -1230.52,295.9"
         style="fill:#5775aa;fill-opacity:1;fill-rule:nonzero;stroke:none"
         id="path232" /><path
         d="m 7086.52,5378.3 c 0,0 -142.87,-314.9 -285.69,-1413 l -113,1.6 c 0,0 -82.5,729.8 -66.47,926.2 16.03,196.4 144.34,489.7 144.34,489.7 0,0 220.77,60.9 320.82,-4.5"
         style="fill:#5775aa;fill-opacity:1;fill-rule:nonzero;stroke:none"
         id="path234" /><path
         d="m 5776.22,5396.6 989.48,-13.8 c 0,0 -133.22,-322.2 -144.34,-489.7 -14.08,-212.1 66.47,-926.2 66.47,-926.2 l 41.94,-0.6 c 0,0 -49.96,733.1 -28.52,916.6 21.45,183.6 184.35,537.3 157.99,575.3 -26.34,38 -717.37,85.2 -1114.35,225.2 0,0 -15.22,-166.7 31.33,-286.8"
         style="fill:#476291;fill-opacity:1;fill-rule:nonzero;stroke:none"
         id="path236" /><path
         d="m 6508.84,6442.5 c -2.7,-192.6 58.45,-312.6 202.05,-531.4 -289.34,-94.3 -593.1,-81.3 -907.77,12.7 70.06,185.8 174.87,337 291.49,468.5 l 2.56,2.9 c 1.39,1.6 2.57,2.9 3.46,3.9 0.98,1.1 2.45,2.7 2.45,2.7 61.47,107.7 -122.6,234.6 -192.96,446.3 -71.7,215.8 -37.43,327.4 -37.43,327.4 272.42,117.5 431.52,143.3 737.82,13 l 8.99,-186.9 c 0,0 81.45,-146.9 71.18,-212.1 -10.27,-65.3 -180.4,-244.4 -181.84,-347"
         style="fill:#ff77c4;fill-opacity:1;fill-rule:nonzero;stroke:none"
         id="path238" /><path
         d="m 6086.53,7273 c -4.87,-71.2 105.95,-123 165.27,-127.1 59.32,-4 166.53,32.9 171.4,104.1 4.88,71.2 -71.35,63.8 -164.32,70.1 -92.97,6.4 -167.47,24.2 -172.35,-47.1"
         style="fill:#feb48c;fill-opacity:1;fill-rule:nonzero;stroke:none"
         id="path240" /><path
         d="m 6253.72,7161.9 v 0 c 64.95,-4.4 121.72,45.1 126.17,110 l 14.15,206.7 c 4.45,64.9 -45.06,121.7 -110,126.1 -64.94,4.5 -121.72,-45 -126.16,-110 l -14.16,-206.6 c -4.45,-65 45.05,-121.7 110,-126.2"
         style="fill:#feb48c;fill-opacity:1;fill-rule:nonzero;stroke:none"
         id="path242" /><path
         d="m 6384.25,7335.6 c 4.16,60.7 9.79,143 9.79,143 4.45,64.9 -45.06,121.7 -110,126.1 -64.94,4.5 -121.72,-45 -126.16,-110 0,0 -2.7,-39.4 -6.44,-94 0,0 43.3,-59.5 102.37,-75 69.17,-18.3 130.44,9.9 130.44,9.9"
         style="fill:#ba6549;fill-opacity:1;fill-rule:nonzero;stroke:none"
         id="path244" /><path
         d="m 6710.89,5911.1 c -25.98,91.7 -206.22,234 -202.05,531.4 1.67,119.2 171.37,257.5 181.87,348.7 -64.04,-26.4 -328.23,-104.9 -745.91,-23.7 77.65,-213.3 176.71,-271.8 158.28,-365.7 0,0 -1.47,-1.6 -2.45,-2.7 -0.89,-1 -2.07,-2.3 -3.46,-3.9 l -2.56,-2.9 c -116.62,-131.5 -221.43,-282.7 -291.49,-468.5 154.06,-46 305.47,-72.3 453.9,-76.4 146.79,-1.7 313.47,18 453.87,63.7"
         style="fill:#ed65b2;fill-opacity:1;fill-rule:nonzero;stroke:none"
         id="path246" /><path
         d="m 6381.27,6324.6 c -0.03,26.3 14.17,89.7 29.25,156.8 21.44,95.7 45.78,204.1 41.96,257.7 -6.48,90.8 -94.18,349.9 -97.92,360.9 l -12.07,-4.2 c 0.89,-2.6 90.89,-268.4 97.27,-357.6 3.7,-51.7 -20.43,-159.1 -41.68,-254 -15.91,-70.8 -29.62,-131.9 -29.57,-159.6 0.22,-161.7 33.6,-311.2 103.77,-466.4 4.46,0.6 8.98,0.7 13.44,1.4 -70.61,154.8 -104.24,303.8 -104.45,465"
         style="fill:#db52a3;fill-opacity:1;fill-rule:nonzero;stroke:none"
         id="path248" /><path
         d="m 6039.7,7239.2 199.05,-203.5 59.62,84.2 55.1,-48.6 37.96,55.2 65.43,-69.9 5.86,185.9 -118.97,-11.7 -304.05,8.4"
         style="fill:#db52a3;fill-opacity:1;fill-rule:nonzero;stroke:none"
         id="path250" /><path
         d="m 6039.7,7239.2 92.41,138.1 211.64,-146.5 -97.67,-146 -206.38,154.4"
         style="fill:#ed65b2;fill-opacity:1;fill-rule:nonzero;stroke:none"
         id="path252" /><path
         d="m 6390.14,7340.8 -46.39,-110 103.7,-128.8 15.27,140.5 -72.58,98.3"
         style="fill:#ed65b2;fill-opacity:1;fill-rule:nonzero;stroke:none"
         id="path254" /><path
         d="m 6325.14,8195.6 c -155.23,7.3 -260.61,-104.3 -284.58,-157.6 0,0 -83.55,-76.4 -82.03,-153.7 1.51,-77.2 -11.4,-120 -11.4,-120 0,0 -62.75,-53.2 -41.04,-139.6 0,0 -2.35,56.3 15.99,77.2 0,0 -24.74,-77.7 6.18,-123.5 0,0 -10.91,46.1 7.06,86.4 0,0 0.66,-33.5 6.29,-65.6 5.63,-32.1 -4.39,-158.5 79.23,-213.6 0,0 -23.11,30.5 -30.09,67.7 0,0 17.98,-24.1 32.17,-45.7 14.17,-21.7 -2.93,-105.7 22.04,-167.1 0,0 -12.6,68.1 -7.59,131.3 0,0 35.58,-92.1 76.07,-115.8 0,0 -56.66,82.7 -59.53,101.9 0,0 37.76,-12.1 62.76,-11.6 0,0 -56.46,9.2 -69.6,41.1 -12.71,31 -14.92,123.7 -8.49,142.6 3.85,-11.9 15.25,-26.1 25.09,-28.3 0.33,-11 0.65,-39.7 -3.88,-61.2 0,0 9.9,5.4 15.83,22.2 0,0 5.52,-26.9 -0.19,-54.1 0,0 13.29,23.5 11.76,37.6 0,0 22.48,-15.4 48.03,-41.3 l 347.8,659.4 c 0,0 -2.65,124 -157.88,131.3"
         style="fill:#000000;fill-opacity:1;fill-rule:nonzero;stroke:none"
         id="path256" /><path
         d="m 6454.65,7400.2 c 0,0 108.5,154.1 100.82,247.4 0,0 9.96,-90.5 -6.81,-129.3 0,0 30.84,36.7 26.46,81.2 0,0 58.4,-116.9 -33.9,-237.9 0,0 32.41,16.3 42.54,35.7 0,0 -16.6,-47.2 -30.31,-63.2 0,0 40.28,32.1 49.89,78.1 0,0 -2.65,-43.4 -17.3,-71.4 0,0 76.21,107.5 13.76,251.9 0,0 15.51,43.7 15.01,69 0,0 5.32,-32.5 -5.78,-62.8 0,0 42.31,47.8 20.68,137.7 0,0 12.35,25.5 11.97,44.8 0,0 2.84,-25.2 1.49,-75.8 0,0 6.54,24.2 7.19,50.7 0,0 3.69,-9.6 0.97,-49.4 0,0 12.83,41.2 0,79.5 0,0 12.62,52 -13.87,91.2 -26.48,39.2 -99.67,135.3 -99.67,135.3 0,0 58.08,-41 65.63,-68.5 0,0 -12.39,35.9 -24.31,47.7 0,0 12.97,-5.8 22.6,-20 0,0 1.91,21.7 -65.42,57.7 0,0 -13.6,38.2 -53.55,48.3 0,0 -18.01,83.9 -163.08,90.7 -145.07,6.8 -243.54,-97.5 -265.94,-147.3 0,0 -78.08,-71.4 -76.66,-143.6 1.41,-72.2 -10.66,-112.2 -10.66,-112.2 0,0 -58.64,-49.7 -38.35,-130.4 0,0 -2.2,52.6 14.95,72.2 0,0 -23.12,-72.7 5.76,-115.5 0,0 -10.19,43.1 6.61,80.8 0,0 0.61,-31.3 5.88,-61.3 5.25,-30 -4.11,-148.2 74.04,-199.6 0,0 -21.6,28.4 -28.12,63.2 0,0 16.8,-22.5 30.06,-42.7 13.25,-20.2 -2.74,-98.8 20.59,-156.2 0,0 -11.77,63.6 -7.08,122.7 0,0 33.25,-86 71.09,-108.1 0,0 -52.95,77.2 -55.64,95.2 0,0 35.28,-11.4 58.65,-10.9 0,0 -52.76,8.6 -65.04,38.5 -12.27,29.8 -14.07,121.3 -7.31,134.7 0,0 13.18,-16.6 22.67,-23.7 0,0 1.88,-36.1 -3.48,-61.4 0,0 9.26,5 14.79,20.7 0,0 5.18,-25.2 -0.17,-50.6 0,0 12.43,22 10.99,35.2 0,0 -4.59,-28.7 21.56,-51.1 26.15,-22.4 125.33,165.3 335.8,-17.2"
         style="fill:#000000;fill-opacity:1;fill-rule:nonzero;stroke:none"
         id="path258" /><path
         d="m 6620.8,7951.5 c 1.04,-2.8 1.63,-4.5 1.63,-4.5 -0.4,1.5 -0.97,3 -1.63,4.5"
         style="fill:#f6f7f4;fill-opacity:1;fill-rule:nonzero;stroke:none"
         id="path260" /><path
         d="m 6671.46,7795 c 0,0 13.01,51.6 -14.18,90.5 -27.2,38.9 -102.35,134.1 -102.35,134.1 0,0 53.64,-36.5 65.78,-63.6 -3.81,9.9 -13.71,33.8 -23.33,43 0,0 13.33,-5.7 23.22,-19.9 0,0 1.98,21.6 -67.2,57.2 0,0 -29.61,31.8 -70.66,41.8 l -312.3,-646.5 c 25.25,-22.7 53.77,-45.9 53.77,-45.9 l -4,9.3 c 25.05,-29.5 123.25,-44.8 172.85,-33.5 l 0.01,0.1 c 1.62,0.3 3.18,0.7 4.7,1.2 h 0.04 c 1.51,0.4 2.96,0.9 4.35,1.3 16.39,5.8 34.89,18.1 52.11,33.5 2.19,2 4.38,4 6.53,6.1 1.46,1.4 2.91,2.8 4.35,4.2 l 0.07,0.1 c 5.5,5.5 10.78,11.3 15.71,17.1 l 0.94,1.2 c 15.65,18.8 27.66,38.8 32,55.7 30.05,52.2 63.38,123.3 58.98,175.3 0,0 10.17,-89.7 -7.09,-128.3 0,0 31.72,36.5 27.25,80.6 0,0 59.94,-115.9 -35.02,-236 0,0 33.32,16.2 43.76,35.5 0,0 -17.1,-46.9 -31.21,-62.7 0,0 41.42,31.9 51.34,77.4 0,0 -2.76,-43 -17.83,-70.8 0,0 78.4,106.7 14.32,249.9 0,0 15.97,43.3 15.48,68.4 0,0 5.43,-32.1 -5.99,-62.2 0,0 43.52,47.4 21.35,136.5 0,0 12.71,25.3 12.34,44.4 0,0 2.89,-25 1.48,-75.2 0,0 6.73,24.1 7.42,50.3 0,0 3.79,-9.4 0.96,-48.9 0,0 13.21,40.9 0.05,78.8"
         style="fill:#000000;fill-opacity:1;fill-rule:nonzero;stroke:none"
         id="path262" /><path
         d="m 6445.16,7944.6 c 0,0 39.76,-54.7 67.98,-73.1 0,0 12.96,-92.5 21.72,-160.5 8.77,-68 -11,-169.8 -22.89,-210.2 -11.98,-40.8 -73.52,-104.4 -112.58,-131.8 -56.28,-39.5 -150.88,-11.3 -186.84,14.4 l -22.78,14.4 c 0,0 -74.37,48.7 -92.29,139.8 l -8.33,77.5 c 0,0 -15.06,9.8 -16.69,30 -1.63,20.1 4.98,61.9 4.98,61.9 0,0 196.59,203.3 259.12,234.9 62.53,31.5 100.15,7 100.15,7 l 31.86,17 c 0,0 -16.19,-11 -23.41,-21.3"
         style="fill:#feb48c;fill-opacity:1;fill-rule:nonzero;stroke:none"
         id="path264" /><path
         d="m 5987.85,7759.3 c 0,0 93.83,-17.3 161.78,46.8 67.95,64.1 100.54,93.9 100.54,93.9 0,0 -30.35,-12.8 -45.29,-28.8 0,0 54.37,72.1 107.1,91.6 52.74,19.6 138.91,21.2 138.91,21.2 0,0 -56.04,9.9 -82.04,4.5 0,0 82.92,19.8 117.31,-3.8 0,0 -59.39,59.6 -160.12,23.6 -100.75,-36 -171.64,-135.7 -231.95,-156.3 0,0 52.05,8.3 71.13,25.7 0,0 -77.5,-72.4 -122.4,-73.7 0,0 68.08,-2.7 128.75,60.4 0,0 -57.43,-105.8 -183.72,-105.1"
         style="fill:#6d3c12;fill-opacity:1;fill-rule:nonzero;stroke:none"
         id="path266" /><path
         d="m 6053.13,7897.3 c 0,0 160.07,156.1 323.8,154.5 0,0 -44.26,8.8 -86.56,3.2 0,0 42.01,15.4 71.92,13.5 0,0 -68.24,21.7 -141.04,-28.3 0,0 74.65,68.3 154.9,51.7 0,0 -109.6,67 -275.92,-57.7 0,0 117.53,62.1 155.66,49.2 0,0 -84.66,-23.5 -116.07,-59.3 0,0 42.76,23.9 58.51,24.2 0,0 -98.41,-60.2 -145.77,-121.9 0,0 81.25,67.2 99.43,68.8 0,0 -88.38,-74.6 -98.86,-97.9"
         style="fill:#6d3c12;fill-opacity:1;fill-rule:nonzero;stroke:none"
         id="path268" /><path
         d="m 6063.02,7625.5 c 0,0 -32.12,12.8 -26.3,-5.3 5.82,-18.1 38.76,-26.5 27.12,-36.3 -11.64,-9.9 -16.99,-15.8 -4.17,-19.5 12.82,-3.6 0,5.5 -7.59,-5.3 -7.58,-10.7 15.86,-44.9 29.38,-38.2 13.54,6.6 10.33,30.8 -0.86,43.9 0,0 -0.11,52.3 -17.58,60.7"
         style="fill:#d6a183;fill-opacity:1;fill-rule:nonzero;stroke:none"
         id="path270" /><path
         d="m 6494.01,7938.6 c 0,0 34.83,-25.7 52.81,-67.7 0,0 -2.73,22.9 -7.53,34.2 0,0 27.62,-9.5 40.34,-96.5 0,0 8.07,19.7 2.82,53.9 0,0 36.48,-27.1 45.25,-90.6 0,0 -5.11,85.7 -48.32,130.6 -43.21,44.9 -63.59,92.5 -63.59,92.5 0,0 6.52,-41 17.13,-56.8 0,0 -22.2,23.6 -22.36,31.6 l 6.19,-23.9 -12.96,19.2 c 0,0 7.35,-25.1 14.42,-35.2 0,0 -6.66,4.1 -24.2,8.7"
         style="fill:#6d3c12;fill-opacity:1;fill-rule:nonzero;stroke:none"
         id="path272" /><path
         d="m 5715.84,6269.6 c 29.67,-28.6 142.79,-65 206.44,-0.1 18.82,212.2 41.13,514.8 59.74,724.9 3.88,43.9 -78.32,165.4 -91.79,178.8 -17.82,17.8 -172.9,-59.4 -176.62,-107.7 -20.07,-260.3 -47.5,-500.9 -46.1,-724.4 0,0 18.67,-42.8 48.33,-71.5"
         style="fill:#ff77c4;fill-opacity:1;fill-rule:nonzero;stroke:none"
         id="path274" /><path
         d="m 6422.02,6727 c 0.24,8.8 1.58,20.2 3.69,32.7 -121.67,-50.3 -392.56,-164.4 -534.76,-239.7 -57.65,-39.2 -149.66,-198.1 -98.73,-244.5 50.93,-46.5 146.02,-2.2 168.03,12.6 83.79,56.3 428.04,292.9 543.06,372 -42.76,4.5 -82.08,37 -81.29,66.9"
         style="fill:#feb48c;fill-opacity:1;fill-rule:nonzero;stroke:none"
         id="path276" /><path
         d="m 6606.65,6714.9 c -34.64,5.2 -69.52,11.7 -103.64,19.3 -12.35,2.8 -20.49,13 -19.36,24.3 12.07,121 35.95,264.6 56.37,363.3 2.8,13.5 17.01,23.3 32.34,22.2 42.02,-2.8 84.27,-7.5 125.55,-13.7 41.29,-6.2 82.78,-14.2 123.33,-23.8 14.8,-3.5 23.93,-16.8 20.8,-30.3 -22.85,-98.3 -61.58,-239.7 -101.73,-356.4 -3.77,-10.9 -15.74,-18.1 -28.46,-17.1 -35.17,2.9 -70.56,7 -105.2,12.2"
         style="fill:#565457;fill-opacity:1;fill-rule:nonzero;stroke:none"
         id="path278" /><path
         d="m 6712.24,6705.6 c -70.49,5.8 -139.94,16.3 -208.35,31.5 -10.77,2.4 -17.95,11.3 -16.96,21.3 11.04,110.6 34.29,256.4 56.33,362.9 2.51,12.1 15.08,20.7 28.75,19.8 84.25,-5.8 167.02,-18.2 248.3,-37.5 13.2,-3.1 21.31,-14.8 18.5,-26.9 -24.67,-106.1 -64.93,-249.3 -101.64,-356.1 -3.32,-9.6 -13.83,-15.9 -24.93,-15"
         style="fill:#3b373c;fill-opacity:1;fill-rule:nonzero;stroke:none"
         id="path280" /><path
         d="m 6620.19,6785.7 c -59.9,55.7 -88.17,124.4 -102.79,195.5 -12.19,-73.4 -22.96,-147.6 -30.47,-222.8 -0.99,-10 6.19,-18.9 16.96,-21.3 68.41,-15.2 137.86,-25.7 208.35,-31.5 11.1,-0.9 21.61,5.4 24.93,15 2.08,6.1 4.1,12.2 6.16,18.2 -44.55,2.9 -87.05,16.3 -123.14,46.9"
         style="fill:#2b282d;fill-opacity:1;fill-rule:nonzero;stroke:none"
         id="path282" /><path
         d="m 6537.9,6663 c 49.53,15.2 94.38,28.7 94.38,28.7 18.19,10.2 38.45,23.7 38.94,42.6 0.28,10.6 -6.02,20.2 -12.12,29.2 -19.62,28.8 -77.63,41.1 -104.89,77.3 -19.13,25.3 -66.33,72.9 -77.11,59.8 -30.32,-36.7 -53.98,-131.9 -55.08,-173.6 -1,-37.9 62.6,-80.3 115.88,-64"
         style="fill:#feb48c;fill-opacity:1;fill-rule:nonzero;stroke:none"
         id="path284" /><path
         d="m 6515.66,6892.1 c -11.9,26.8 2.47,55.8 9.83,107.1 4.91,34.1 -38.2,60.8 -46.96,32.8 -7.83,-25 -28.82,-101.1 -32.4,-114.2 -3.58,-13.2 1.21,-75.9 8.14,-90.3 6.94,-14.4 82.94,16.1 61.39,64.6"
         style="fill:#feb48c;fill-opacity:1;fill-rule:nonzero;stroke:none"
         id="path286" /><path
         d="m 6568.04,6819.4 c 35.19,34.9 57.58,37.3 83.42,79.4 21.99,35.8 78.49,118 100.75,154.6 15.26,25.2 -40.39,13.7 -55.63,-11.5 -22.79,-37.5 -50.4,-67.6 -83.28,-110.7 -26.69,-34.9 -72.12,-52.8 -103.45,-83.8 -21.09,-20.9 37.05,-48.9 58.19,-28"
         style="fill:#feb48c;fill-opacity:1;fill-rule:nonzero;stroke:none"
         id="path288" /><path
         d="m 6589.16,6779.5 c 46.45,21.7 68.12,16.8 108.81,48.3 34.61,26.8 76.67,59.5 111.9,87.1 24.17,18.9 -31.88,25.7 -56,6.8 -36.08,-28.2 -30.62,-20.9 -78.21,-51.1 -38.63,-24.5 -87.75,-26.9 -129.1,-46.2 -27.83,-13 14.71,-57.9 42.6,-44.9"
         style="fill:#feb48c;fill-opacity:1;fill-rule:nonzero;stroke:none"
         id="path290" /><path
         d="m 6620.82,6727.5 c 46.46,21.6 85.22,33 104,44.7 8.72,5.4 39.97,33.5 46.66,43.7 6.69,10.1 23.49,32.9 23.49,32.9 2.96,11.5 -13.13,22.5 -23.49,14.9 -12.08,-8.7 -44.81,-39.7 -72.11,-56.9 0,0 -72.32,-17.2 -121.15,-34.4 -29.1,-10.3 14.71,-58 42.6,-44.9"
         style="fill:#feb48c;fill-opacity:1;fill-rule:nonzero;stroke:none"
         id="path292" /><path
         d="m 6646.96,6714.6 c 20.59,-5.3 41.08,-16.5 64.14,-2 25.01,15.7 48.82,38.2 69.93,61.6 19.74,21.8 3.17,37.7 -18.93,20 -21.16,-17.1 -63.63,-44.5 -73.29,-42.3 -8.89,2.1 -35.11,7.1 -43.92,9.4 -22.21,5.8 -20.17,-40.9 2.07,-46.7"
         style="fill:#feb48c;fill-opacity:1;fill-rule:nonzero;stroke:none"
         id="path294" /><path
         d="m 15047.7,4151.6 c 0,0 62.3,-1182.4 103.8,-1435.7 0,0 -24.9,-67.1 -171.6,-110 -146.8,-42.9 -232.6,-85.8 -174.5,-155.5 0,0 553.8,-13.4 598.1,18.8 44.3,32.2 27.6,83.1 -36,203.8 0,0 91.3,1359.3 38.7,1478.6 h -358.5"
         style="fill:#e8b795;fill-opacity:1;fill-rule:nonzero;stroke:none"
         id="path296" /><path
         d="m 15503.1,4151.6 c 0,0 8.3,-347.2 116.3,-585.8 108,-238.7 312.8,-718.6 312.8,-796.3 0,-77.8 0,-193.1 0,-193.1 0,0 121.9,-80.4 185.5,56.3 0,0 -27.6,206.5 -52.6,367.4 -24.9,160.8 -121.8,654.1 -157.8,807 -36,152.8 -44.3,344.5 -44.3,344.5 h -359.9"
         style="fill:#e8b795;fill-opacity:1;fill-rule:nonzero;stroke:none"
         id="path298" /><path
         d="m 14967.4,2602.2 c -138.9,-41.7 -218.4,-84.1 -162,-151.8 0,0 553.8,-13.4 598.1,18.8 41.1,29.9 29.6,76 -23.2,179.1 -0.2,0 -278.6,-124.8 -412.9,-46.1"
         style="fill:#01153e;fill-opacity:1;fill-rule:nonzero;stroke:none"
         id="path300" /><path
         d="m 15932.2,2576.4 c 0,0 -83,-71.7 -39.4,-148.1 43.6,-76.4 245,-21.6 269.9,19.4 24.9,40.9 -45,185 -45,185 l -185.5,-56.3"
         style="fill:#01153e;fill-opacity:1;fill-rule:nonzero;stroke:none"
         id="path302" /><path
         d="m 15569.2,7756.3 c 0,0 102.9,53.3 181.3,-154.4 78.4,-207.7 82.5,-531.5 54.2,-641.7 0,0 227.7,-245.2 41.6,-405.3 0,0 -256.3,-269.6 -273.2,-339.1 -6.6,16.3 -116.6,214.4 -294.9,225.4 -178.2,11 -617.6,472.5 -383.3,544.2 0,0 -17.4,-74.6 62.5,-56.7 80,17.9 29.6,293.1 30.4,390.5 0.8,97.3 59.4,337.2 229.9,439 170.5,101.8 366.8,94.6 351.5,-1.9"
         style="fill:#1c1715;fill-opacity:1;fill-rule:nonzero;stroke:none"
         id="path304" /><path
         d="m 14421.1,6480 c -119.8,-77.4 -254.5,16 -254.5,16 l -22.1,-202.2 c 163.3,-184.7 390,-81.7 390,-81.7 205.6,54.9 647.4,728 647.4,728 -243.4,60.9 -641,-382.6 -760.8,-460.1"
         style="fill:#e55daa;fill-opacity:1;fill-rule:nonzero;stroke:none"
         id="path306" /><path
         d="m 15278.3,7115.7 c 0,0 -36.9,-137.1 -61.1,-155.4 0,0 -24.2,-63.3 47.2,-242 71.5,-178.8 252.5,-79 281.4,-30.2 29,48.8 92.9,142.2 34.6,235 0,0 -79.9,58 -38.2,184 0,0 -251.3,50.7 -263.9,8.6"
         style="fill:#eba97a;fill-opacity:1;fill-rule:nonzero;stroke:none"
         id="path308" /><path
         d="m 15573.4,7104 c 0,0 -121.1,-94 -220.2,-57.7 -99,36.2 -186.8,132 -213.9,227.9 -27.2,95.9 16.9,288.3 83.5,356.8 66.7,68.5 314.3,113.4 383.8,24.2 69.5,-89.1 96.6,-448.8 -33.2,-551.2"
         style="fill:#fdc596;fill-opacity:1;fill-rule:nonzero;stroke:none"
         id="path310" /><path
         d="m 15796.8,5407.1 c 0,0 263.5,-141.9 278,-213.4 l -290.4,92.9 12.4,120.5"
         style="fill:#e55daa;fill-opacity:1;fill-rule:nonzero;stroke:none"
         id="path312" /><path
         d="m 15021.7,5329.8 c 0,0 -105.8,-772.3 -3.1,-1264.6 0,0 744.7,-58.8 884.6,19.4 0,0 46.8,847.6 -11,1240.8 l -870.5,4.4"
         style="fill:#314452;fill-opacity:1;fill-rule:nonzero;stroke:none"
         id="path314" /><path
         d="m 15547.1,5327.1 c 114.4,-74.3 240.8,-192.9 240.8,-354.5 0,-220.3 -23.5,-693.9 -35.4,-920.5 67.9,6.2 122,16.5 150.7,32.5 0,0 46.8,847.6 -11,1240.8 l -345.1,1.7"
         style="fill:#153047;fill-opacity:1;fill-rule:nonzero;stroke:none"
         id="path316" /><path
         d="m 15539.7,6969.1 c 0,0 -216.6,-94.9 -321.6,13.3 0,0 -454.1,-455 -196.4,-1648.4 0,0 866.2,-44.7 883.4,-47.7 17.1,-3 -62.2,258.8 -163.5,331.4 -100.6,72.1 -681.9,407 -199.7,1332.3 3.3,6.3 2.8,9.9 -2.2,19.1"
         style="fill:#f6f6f6;fill-opacity:1;fill-rule:nonzero;stroke:none"
         id="path318" /><path
         d="m 15621,5303.2 c -685.6,155.6 -473.6,856.6 -497.1,997.1 -19.4,116.9 174.1,503.4 239.9,630.4 -52.7,-0.5 -106.9,11.7 -145.7,51.7 0,0 -454.1,-455 -196.4,-1648.4 0,0 344.2,-17.8 603,-31.7 -1.3,0.3 -2.4,0.6 -3.7,0.9"
         style="fill:#dce2ea;fill-opacity:1;fill-rule:nonzero;stroke:none"
         id="path320" /><path
         d="m 15546.1,6971.7 c 0,0 56.9,-5.9 134.9,-29.4 31.4,-9.6 243.4,-87 228.9,-424.1 -15.6,-363.9 -48.6,-670.7 3.7,-795.7 52.4,-125.1 171.8,-332.9 178.3,-557.1 -270.2,217.9 -596.9,451.9 -775.8,827.9 -248.7,522.8 230,978.4 230,978.4"
         style="fill:#ff77c4;fill-opacity:1;fill-rule:nonzero;stroke:none"
         id="path322" /><path
         d="m 15740.8,6914.2 c 72.4,-45.1 179.6,-153.1 169.1,-396 -15.6,-363.9 -48.6,-670.7 3.7,-795.7 52.4,-125.1 171.8,-332.9 178.3,-557.1 0,0 -116.9,374.1 -307.5,569.9 0,0 153,787.1 -43.6,1178.9"
         style="fill:#e55daa;fill-opacity:1;fill-rule:nonzero;stroke:none"
         id="path324" /><path
         d="m 15568.4,6972 -192.1,-158.9 -30.7,113.1 154.1,43.4 68.7,2.4"
         style="fill:#9cd6e2;fill-opacity:1;fill-rule:nonzero;stroke:none"
         id="path326" /><path
         d="m 15225.6,6982.4 112.7,-51.6 -106.6,-122.6 c 0,0 -51.7,125.4 -6.1,174.2"
         style="fill:#9cd6e2;fill-opacity:1;fill-rule:nonzero;stroke:none"
         id="path328" /><path
         d="m 14869.3,6618.4 c 0,0 13.6,86.7 42.9,200.9 8.5,32.9 30.3,71.9 60.7,90.6 65.8,40.6 171.3,60.7 252.7,72.5 0,0 -226,-860.7 -210.5,-1516.4 11,-57.7 15.8,-107.6 6.6,-132 0,0 -53.8,-21.2 -146.1,-83.1 -84.8,-56.8 32.8,429.2 52.8,509.6 -54.7,312.8 -91.2,532.5 -59.1,857.9"
         style="fill:#ff77c4;fill-opacity:1;fill-rule:nonzero;stroke:none"
         id="path330" /><path
         d="m 15711.1,6796.2 c 0,0 99.3,-38.4 155.8,38.3 56.4,76.6 -38.3,122.7 -38.3,122.7 0,0 61.6,-77.5 -28.2,-87.3 -89.8,-9.7 -90.4,141.1 -58.8,224.3 91.1,240.3 38.3,398.3 -3.9,484.4 -42.1,86 -117.2,149.1 -117.2,149.1 l -51.3,28.6 -35.6,-87.2 c 0,0 64.6,-98.8 97.4,-190 32.8,-91.1 46.7,-208.1 -30,-359.1 -76.7,-150.8 -95.9,-299.1 110.1,-323.8"
         style="fill:#442b19;fill-opacity:1;fill-rule:nonzero;stroke:none"
         id="path332" /><path
         d="m 15533.6,7669.1 35.6,87.2 c 0,0 102.9,53.3 181.3,-154.4 27,-71.4 41,-157 46.8,-243.1 -35.2,-129.2 -135,-278 -189.3,-404.4 -68.6,-159.7 141.2,-117 141.2,-117 0,0 -69.9,-118.3 -175,-27.2 -115.6,100.2 -14.8,265.6 29.3,352.1 44.1,86.6 36.7,250.6 -5.6,343.8 -42.3,93.2 -64.3,163 -64.3,163"
         style="fill:#513826;fill-opacity:1;fill-rule:nonzero;stroke:none"
         id="path334" /><path
         d="m 15533.6,7669.1 c 0,0 -234.8,62.2 -352.7,-222.1 -117.9,-284.2 51.3,-415.2 21.5,-502.8 -29.7,-87.7 -109.7,-100.3 -178.3,-10.1 0,0 84.3,-54.4 96.9,7 12.6,61.5 -127.6,151.5 -114.9,385.9 4.5,82.4 17.9,153.2 33.3,210.6 36.1,84.7 93.3,169.8 178.3,220.6 170.5,101.8 366.8,94.6 351.5,-1.9 l -35.6,-87.2"
         style="fill:#442b19;fill-opacity:1;fill-rule:nonzero;stroke:none"
         id="path336" /><path
         d="m 14247.5,6405.7 165.3,230.3 -1002.2,719.2 -165.3,-230.3 1002.2,-719.2"
         style="fill:#788587;fill-opacity:1;fill-rule:nonzero;stroke:none"
         id="path338" /><path
         d="m 12322.6,6770.2 c -251.1,0 -504.5,75.8 -724.1,233.3 -287.2,206.1 -460.4,511.9 -506.3,836.3 h 2463.1 c -27.1,-192.7 -99.9,-381.9 -221.2,-551 -243,-338.5 -624.4,-518.6 -1011.5,-518.6 M 13566,8072 h -2484.8 c 10.6,232.2 86.4,464.1 232.1,667 7.2,10.1 14.5,20 22,29.8 h 1977.2 c 155.2,-203.3 241.7,-447.4 253.5,-696.8 m -485.7,929 h -1513.8 c 219.7,168.7 487.6,256.7 758.2,256.7 251.1,0 504.5,-75.8 724.1,-233.4 10.6,-7.6 21.1,-15.4 31.5,-23.3"
         style="fill:#649db7;fill-opacity:1;fill-rule:nonzero;stroke:none"
         id="path340" /><path
         d="m 13312.5,8768.8 h -1977.2 c 68,89.2 146,166.8 231.2,232.2 h 1513.8 c 89.2,-68.4 166.8,-146.7 232.2,-232.2"
         style="fill:#8cc7da;fill-opacity:1;fill-rule:nonzero;stroke:none"
         id="path342" /><path
         d="m 13555.3,7839.8 h -2463.1 c -10.8,76.7 -14.6,154.5 -11,232.2 H 13566 c 3.7,-77.3 0.2,-155 -10.7,-232.2"
         style="fill:#8cc7da;fill-opacity:1;fill-rule:nonzero;stroke:none"
         id="path344" /><path
         d="m 11630.5,7048 c -533.5,382.8 -655.6,1125.6 -272.7,1659.1 382.8,533.5 1125.6,655.5 1659,272.7 533.5,-382.8 655.6,-1125.6 272.8,-1659.1 -382.9,-533.4 -1125.7,-655.5 -1659.1,-272.7 z m -101.1,-140.8 c 611.2,-438.7 1462.3,-298.7 1901,312.5 438.6,611.2 298.7,1462.3 -312.5,1901 -611.2,438.6 -1462.3,298.7 -1901,-312.5 -438.6,-611.3 -298.7,-1462.4 312.5,-1901"
         style="fill:#1a335b;fill-opacity:1;fill-rule:nonzero;stroke:none"
         id="path346" /><path
         d="m 13876.5,6740.1 100.7,140.3 c 65.7,91.6 209.2,101.1 320.4,21.3 L 15963,5706.6 c 111.2,-79.9 148.1,-218.8 82.4,-310.4 l -100.7,-140.4 c -65.8,-91.5 -209.2,-101.1 -320.5,-21.3 l -1665.3,1195.2 c -111.3,79.8 -148.1,218.8 -82.4,310.4"
         style="fill:#1a335b;fill-opacity:1;fill-rule:nonzero;stroke:none"
         id="path348" /><path
         d="m 11593.1,7862.7 c 110.9,-161.7 331.9,-202.9 493.6,-92 161.7,110.8 202.9,331.8 92.1,493.5 -110.9,161.8 -331.9,203 -493.6,92.1 -161.8,-110.9 -203,-331.9 -92.1,-493.6"
         style="fill:#ffffff;fill-opacity:1;fill-rule:nonzero;stroke:none"
         id="path350" /><path
         d="m 11886.2,7276.3 c 39.4,-57.5 118,-72.1 175.4,-32.7 57.5,39.4 72.1,117.9 32.7,175.4 -39.4,57.5 -117.9,72.1 -175.4,32.7 -57.5,-39.4 -72.1,-117.9 -32.7,-175.4"
         style="fill:#ffffff;fill-opacity:1;fill-rule:nonzero;stroke:none"
         id="path352" /><path
         d="m 15153.2,5696.3 c 0,0 -64.1,-27.3 -114.7,-69.7 -50.5,-42.3 -100.8,-109.3 -196.1,20.3 -96,130.5 -31.9,157.9 7.9,138.5 39.8,-19.4 93.2,-53.8 131.1,-22.1 37.9,31.8 115.6,44.1 115.6,44.1 l 56.2,-111.1"
         style="fill:#fdc596;fill-opacity:1;fill-rule:nonzero;stroke:none"
         id="path354" /><path
         d="m 15070.3,5820 c 0,0 342.1,197.5 442.4,222.1 0,0 -24.7,365.6 33.9,503.8 58.6,138.3 373.2,313.2 323.5,63.6 -49.7,-249.7 -67.2,-651.1 -206.6,-767.9 -139.3,-116.8 -333.5,-71.5 -523.1,-200.6 l -70.1,179"
         style="fill:#ff77c4;fill-opacity:1;fill-rule:nonzero;stroke:none"
         id="path356" /><path
         d="m 15663.5,5841.6 c 139.4,116.8 167,526.2 216.7,775.8 19,95.4 -16.7,127.5 -71.3,123.2 0,-0.9 0.3,-1.8 0.4,-2.7 12.7,-205.3 2.3,-736.5 -219.5,-812.3 -150.3,-51.3 -350.8,-172.7 -464.6,-245.6 l 15.2,-39 c 189.6,129.1 383.8,83.8 523.1,200.6"
         style="fill:#e55daa;fill-opacity:1;fill-rule:nonzero;stroke:none"
         id="path358" /><path
         d="m 14275.9,6527.5 c 14,3.7 26.2,-10 20.7,-23.4 -4.5,-10.9 -12.6,-23 -27.2,-33.1 -36,-24.9 -58.1,-63.3 -50,-67.6 8.2,-4.3 69.6,57.3 94.4,37 24.8,-20.2 -77.8,-76.9 -75.6,-92.7 2.2,-15.7 70.9,40 78.8,19.2 7.9,-20.8 -80.6,-70.3 -80.8,-82.7 -0.3,-12.4 53.9,11.4 49.4,-5 -4.4,-16.5 -27.8,-41.7 -93.2,-47.1 0,0 -101.1,-13.7 -116.5,44.4 -14.6,55 47.5,210.3 200,251"
         style="fill:#fdc596;fill-opacity:1;fill-rule:nonzero;stroke:none"
         id="path360" /></g></g></svg>
