<?xml version="1.0" encoding="UTF-8" standalone="no"?>
<!-- Created with Inkscape (http://www.inkscape.org/) -->

<svg
   version="1.1"
   id="svg2"
   xml:space="preserve"
   width="793.70667"
   height="793.70667"
   viewBox="0 0 793.70667 793.70667"
   sodipodi:docname="envio-38.eps"
   xmlns:inkscape="http://www.inkscape.org/namespaces/inkscape"
   xmlns:sodipodi="http://sodipodi.sourceforge.net/DTD/sodipodi-0.dtd"
   xmlns="http://www.w3.org/2000/svg"
   xmlns:svg="http://www.w3.org/2000/svg"><defs
     id="defs6" /><sodipodi:namedview
     id="namedview4"
     pagecolor="#ffffff"
     bordercolor="#666666"
     borderopacity="1.0"
     inkscape:pageshadow="2"
     inkscape:pageopacity="0.0"
     inkscape:pagecheckerboard="0" /><g
     id="g8"
     inkscape:groupmode="layer"
     inkscape:label="ink_ext_XXXXXX"
     transform="matrix(1.3333333,0,0,-1.3333333,0,793.70667)"><g
       id="g10"
       transform="scale(0.1)"><path
         d="M 2976.13,4985.05 C 1690.16,4985.05 647.637,3942.51 647.637,2656.52 647.637,1370.5 1690.16,327.941 2976.13,327.941 c 1286.06,0 2328.6,1042.559 2328.6,2328.579 0,1285.99 -1042.54,2328.53 -2328.6,2328.53"
         style="fill:#ade4f3;fill-opacity:1;fill-rule:nonzero;stroke:none"
         id="path12" /><path
         d="m 4845.14,1267.45 c -2.64,159.87 -116,301.88 -279.2,334.46 -160.31,32.03 -316.82,-52 -382.8,-193.99 -38.41,34.22 -86.13,59.05 -140.27,69.87 -118.24,23.59 -234.04,-26.04 -300.6,-117.56 -19.22,7.73 -39.38,13.88 -60.39,18.1 -183.01,36.51 -360.98,-82.2 -397.5,-265.15 -36.51,-183.032 82.18,-360.961 265.21,-397.5 62.87,-12.559 125.2,-6.782 181.33,13.652 -0.28,-1.273 -0.59,-2.523 -0.84,-3.812 -18.36,-91.969 4.22,-182.598 55.12,-253.09 426.01,157.871 793.26,436.761 1059.94,795.02"
         style="fill:#dcf3f0;fill-opacity:1;fill-rule:nonzero;stroke:none"
         id="path14" /><path
         d="m 1098.79,1616.83 c -0.1,8.08 -0.61,16.19 -1.43,24.24 4.22,-7.23 8.87,-14.12 13.75,-20.92 -4.2,-1 -8.3,-2.11 -12.32,-3.32 z m 310.08,-486.37 c 133.9,-70.99 299.96,-19.94 370.92,113.91 70.91,133.88 19.92,299.96 -113.95,370.92 -24.94,13.2 -50.94,22.18 -77.29,27.18 2,3.46 4.07,7.01 5.96,10.59 73.79,139.16 20.69,311.74 -118.42,385.47 -80.86,42.85 -172.91,42.81 -250.41,8.1 -19.94,57.68 -60.95,108.25 -119.12,139.07 -89.02,47.18 -193.669,35.13 -268.943,-22.19 -19.023,22.01 -42.344,41.01 -69.57,55.47 -27.051,14.29 -55.567,22.91 -84.219,26.38 74.707,-419.31 261.66,-799.74 528.652,-1109.2 43.36,7.72 84.47,26.74 118.42,55.94 21.44,-24.49 47.54,-45.56 77.97,-61.64"
         style="fill:#dcf3f0;fill-opacity:1;fill-rule:nonzero;stroke:none"
         id="path16" /><path
         d="m 2869.73,2621.93 -302.91,-1715.2 938.77,56.641 -357.23,1676.519 -278.63,-17.96"
         style="fill:#dcf3f0;fill-opacity:1;fill-rule:nonzero;stroke:none"
         id="path18" /><path
         d="m 3672.7,1071.13 c 27.09,74.59 -6.33,156.38 -75.08,191.75 18.65,20.96 33.77,45.71 43.94,73.69 43.03,118.46 -18.1,249.34 -136.54,292.39 -118.42,43.01 -249.34,-18.11 -292.36,-136.55 -4.79,-13.22 -8.23,-26.58 -10.53,-39.94 -9.94,5.3 -20.37,9.98 -31.27,13.97 -126.35,45.88 -266,-19.32 -311.9,-145.69 -39.14,-107.71 2.54,-225.02 93.95,-285.74 -27.79,-22.99 -50.04,-53.459 -63.24,-89.799 -28.87,-79.461 -6.72,-164.941 49.67,-220.762 -7.39,-12.5 -13.81,-25.789 -18.93,-39.929 -44.67,-122.93 18.79,-258.801 141.72,-303.45 122.93,-44.672 258.77,18.789 303.44,141.7 15.35,42.261 17.95,86.05 9.7,127.121 l 2.56,-0.969 c 117.89,-42.852 248.21,18.008 291.06,135.918 28.61,78.75 10.93,162.98 -39.07,223.04 18.72,16.64 33.72,38.03 42.88,63.25"
         style="fill:#dcf3f0;fill-opacity:1;fill-rule:nonzero;stroke:none"
         id="path20" /><path
         d="m 5002.64,2155.58 c -8.34,-11.13 -15.45,-22.78 -21.49,-34.79 -7.87,7.91 -16.36,15.37 -25.56,22.25 -106.35,79.88 -257.35,58.46 -337.23,-47.87 -68.11,-90.69 -62.48,-213.77 6.5,-297.6 -32.93,-13.73 -62.77,-36.15 -85.76,-66.76 -50.23,-66.85 -53.92,-154.18 -16.66,-223.26 -10.6,-9.71 -20.51,-20.45 -29.43,-32.34 -77.74,-103.46 -56.86,-250.37 46.6,-328.11 50.7,-38.08 111.82,-52.44 170.14,-45.06 279.7,311.74 476.54,699.28 555.89,1128.11 -92.12,36.21 -200.64,8.44 -263,-74.57"
         style="fill:#dcf3f0;fill-opacity:1;fill-rule:nonzero;stroke:none"
         id="path22" /><path
         d="m 2764.57,1336.67 c 11.5,17.01 20.8,36.13 27.15,57.11 30.39,100.16 -16.93,203.17 -105.74,230.1 -80.34,24.39 -167.11,-21.91 -205.39,-105.16 -74.75,2.33 -147.35,-51.95 -172.76,-135.56 -20.62,-68.05 -4.49,-137.37 36.37,-182.19 -36.39,-13.85 -67.29,-46.15 -80.41,-89.47 -21.21,-69.77 11.78,-141.551 73.65,-160.34 5.47,-1.66 10.98,-2.711 16.47,-3.43 l -0.49,-1.41 c -22.79,-75.101 12.71,-152.359 79.29,-172.558 66.63,-20.231 139.07,24.277 161.86,99.34 4.12,13.609 6.29,27.257 6.76,40.617 1.72,-0.559 3.36,-1.149 5.06,-1.68 106.5,-32.34 222.36,38.852 258.82,158.951 33.34,109.82 -11.32,222.52 -100.64,265.68"
         style="fill:#dcf3f0;fill-opacity:1;fill-rule:nonzero;stroke:none"
         id="path24" /><path
         d="m 2463.71,647.551 c 20.43,-3.301 41.47,-4.821 62.91,-4.238 186.52,4.976 333.69,160.257 328.69,346.757 -5,186.54 -160.23,333.69 -346.77,328.71 -64.13,-1.72 -123.6,-21.17 -173.81,-53.55 -0.02,1.29 0,2.57 -0.02,3.88 -4.79,178.91 -153.69,320.08 -332.6,315.26 -119.51,-3.17 -222.09,-70.71 -275.66,-168.5 -31.88,16.19 -68.11,24.9 -106.39,23.89 -113.17,-3.05 -204.24,-90.16 -215.24,-199.92 -37.57,13.79 -78.34,20.91 -120.82,19.76 -51.44,-1.37 -99.8,-14.65 -142.5,-37.11 267.11,-341.228 627.29,-605.99 1042.41,-756.189 4.22,-0.082 8.47,-0.192 12.73,-0.082 120.57,3.23 222.44,77.332 267.07,181.332"
         style="fill:#dcf3f0;fill-opacity:1;fill-rule:nonzero;stroke:none"
         id="path26" /><path
         d="m 4783.4,1188.23 c -22.93,18.64 -48.6,34.67 -76.82,47.37 -149.1,67.09 -320.43,20.19 -416.48,-103.44 -29.79,41.97 -70.74,76.84 -121.08,99.47 -109.98,49.48 -233.94,27 -319.29,-47.3 -17.02,11.83 -35.28,22.36 -54.85,31.17 -170.17,76.54 -370.17,0.66 -446.72,-169.51 -76.54,-170.181 -0.66,-370.177 169.54,-446.74 58.49,-26.309 120.52,-34.629 179.8,-27.27 -0.53,-1.167 -1.13,-2.32 -1.66,-3.531 -19.92,-44.258 -29,-90.648 -28.52,-136.187 443.42,137.648 829.98,404.289 1116.08,755.968"
         style="fill:#ffffff;fill-opacity:1;fill-rule:nonzero;stroke:none"
         id="path28" /><path
         d="m 1495.16,951.012 c 1.17,0.578 2.32,1.148 3.49,1.758 157.44,85.09 216.15,281.68 131.04,439.16 -56.78,105.15 -163.36,166.19 -274.81,169.8 0.02,35.76 -8.57,72.03 -26.75,105.7 -53.81,99.59 -172.7,141.55 -275.59,101.76 -4.69,39.79 -16.7,79.36 -36.9,116.74 -59.41,109.98 -173.003,171.91 -289.859,170.76 143.946,-541.4 477.989,-1005.23 926.409,-1315.741 -6.72,26.973 -16.9,53.571 -30.73,79.18 -30.5,56.41 -74.72,100.703 -126.3,130.883"
         style="fill:#ffffff;fill-opacity:1;fill-rule:nonzero;stroke:none"
         id="path30" /><path
         d="m 2907.07,2297.34 -234.96,-1199.67 728.16,39.63 -277.07,1172.59 -216.13,-12.55"
         style="fill:#ffffff;fill-opacity:1;fill-rule:nonzero;stroke:none"
         id="path32" /><path
         d="m 3375.27,478.609 2.56,-0.98 c 117.91,-42.867 248.21,18.012 291.06,135.922 28.61,78.75 10.93,162.988 -39.07,223.039 18.72,16.64 33.7,38.031 42.88,63.25 27.09,74.59 -6.33,156.38 -75.08,191.73 18.65,20.98 33.77,45.73 43.92,73.73 43.05,118.44 -18.08,249.32 -136.52,292.37 -118.42,43.05 -249.34,-18.11 -292.36,-136.54 -4.81,-13.25 -8.25,-26.59 -10.53,-39.97 -9.94,5.3 -20.37,10 -31.27,13.99 -126.33,45.88 -266,-19.32 -311.9,-145.67 -39.14,-107.71 2.54,-225.031 93.95,-285.781 -27.79,-22.98 -50.02,-53.429 -63.24,-89.777 -28.87,-79.453 -6.7,-164.961 49.67,-220.742 -7.41,-12.5 -13.81,-25.801 -18.93,-39.961 -22.83,-62.817 -17.36,-129.008 9.79,-184.688 15.31,-0.301 30.6,-0.59 45.93,-0.59 133.81,0 264.92,11.45 392.54,33.129 12.44,39.25 14.2,79.551 6.6,117.539"
         style="fill:#ffffff;fill-opacity:1;fill-rule:nonzero;stroke:none"
         id="path34" /><path
         d="m 5179.92,2030.27 c -109.92,-27.95 -182.69,-127.33 -181.54,-235.9 -34.28,9.94 -71.56,11.21 -108.67,1.77 -81.06,-20.58 -138.69,-86.28 -152.97,-163.45 -14.34,-0.92 -28.79,-3.09 -43.2,-6.74 -125.43,-31.86 -201.29,-159.4 -169.44,-284.84 28.07,-110.45 130.33,-182.43 240.04,-176.25 209.88,251.28 367.74,547.5 457.11,872.12 -13.73,-1.05 -27.54,-3.2 -41.33,-6.71"
         style="fill:#ffffff;fill-opacity:1;fill-rule:nonzero;stroke:none"
         id="path36" /><path
         d="m 2815.92,1216.63 c 4.61,19.98 6.4,41.19 4.78,63.05 -7.67,104.37 -88.92,183.44 -181.48,176.6 -83.75,-6.15 -148.01,-80.58 -153.77,-172.03 -70.59,-24.73 -118.77,-101.52 -112.36,-188.69 5.25,-70.9 45.25,-129.771 99.51,-156.88 -28.95,-25.989 -46.19,-67.258 -42.83,-112.399 5.33,-72.73 61.97,-127.832 126.44,-123.082 5.68,0.43 11.21,1.442 16.62,2.711 l 0.04,-1.48 c 5.74,-78.27 66.68,-137.559 136.09,-132.45 69.4,5.122 121,72.7 115.24,150.961 -1.06,14.161 -3.95,27.7 -8.32,40.329 1.78,0.082 3.53,0.121 5.33,0.261 111,8.16 193.5,116.27 184.28,241.459 -8.44,114.46 -90.7,203.52 -189.57,211.64"
         style="fill:#ffffff;fill-opacity:1;fill-rule:nonzero;stroke:none"
         id="path38" /><path
         d="m 2665.18,363 c 186.52,5.02 333.69,160.25 328.69,346.781 -4.96,186.539 -160.24,333.689 -346.76,328.709 -64.12,-1.74 -123.61,-21.17 -173.83,-53.56 -0.02,1.289 0.02,2.582 -0.02,3.89 -4.78,178.91 -153.69,320.06 -332.6,315.25 -119.51,-3.16 -222.09,-70.7 -275.64,-168.49 -31.89,16.17 -68.13,24.9 -106.39,23.87 -113.16,-3.03 -204.25,-90.16 -215.25,-199.93 -37.6,13.812 -78.34,20.941 -120.78,19.789 -18.87,-0.489 -37.27,-2.7 -55.16,-6.25 331.84,-317.188 757.33,-537.129 1230.74,-614.418 1.37,2.879 2.82,5.691 4.07,8.621 20.46,-3.301 41.48,-4.832 62.93,-4.262"
         style="fill:#ffffff;fill-opacity:1;fill-rule:nonzero;stroke:none"
         id="path40" /><path
         d="m 3738.18,629.25 c -64.1,-1.719 -123.57,-21.168 -173.77,-53.551 -0.03,1.301 0,2.59 -0.03,3.903 -4.79,178.91 -153.72,320.058 -332.6,315.257 -119.51,-3.187 -222.09,-70.707 -275.67,-168.5 -31.87,16.172 -68.1,24.883 -106.38,23.871 -113.15,-3.05 -204.24,-90.179 -215.24,-199.941 -37.58,13.801 -78.34,20.953 -120.82,19.801 -103.42,-2.75 -194.22,-53.539 -251.81,-130.352 225.07,-72.476 465.07,-111.797 714.27,-111.797 354.14,0 689.77,79.2 990.28,220.629 -61.27,52.301 -141.33,83 -228.23,80.68"
         style="fill:#ffffff;fill-opacity:1;fill-rule:nonzero;stroke:none"
         id="path42" /><path
         d="m 4191.68,3693.04 c 1.21,1.6 2.42,3.26 3.57,4.92 2.46,-2.97 5.1,-5.84 7.8,-8.59 -3.71,1.38 -7.54,2.6 -11.37,3.67 z m 264,108.07 c -9.02,-1.78 -17.59,-4.57 -25.66,-8.21 -0.39,5.06 -1.06,10.16 -2.05,15.24 -14.04,72.01 -83.81,119 -155.82,104.94 -39.63,-7.76 -71.64,-32.36 -90.12,-64.94 -26.99,27.48 -66.82,41.29 -107.42,33.36 -49.34,-9.63 -85.49,-48.54 -94,-95.16 -15.38,2.66 -31.47,2.66 -47.66,-0.53 -52.91,-10.31 -92.13,-50.99 -103.22,-100.41 h 764.31 c 0.1,7.91 -0.56,15.94 -2.15,24.01 -12.28,62.93 -73.26,103.98 -136.21,91.7"
         style="fill:#ffffff;fill-opacity:1;fill-rule:nonzero;stroke:none"
         id="path44" /><path
         d="m 1795.98,3212.16 c 0.95,1.25 1.91,2.54 2.79,3.83 1.91,-2.33 3.98,-4.55 6.09,-6.7 -2.91,1.07 -5.9,2.01 -8.88,2.87 z m 206.13,84.36 c -7.07,-1.39 -13.77,-3.56 -20.06,-6.41 -0.29,3.94 -0.82,7.91 -1.58,11.89 -10.98,56.23 -65.45,92.91 -121.66,81.92 -30.94,-6.02 -55.92,-25.24 -70.33,-50.67 -21.1,21.43 -52.17,32.21 -83.89,26.02 -38.5,-7.5 -66.76,-37.87 -73.38,-74.26 -12.01,2.07 -24.55,2.05 -37.23,-0.41 -41.3,-8.06 -71.93,-39.82 -80.56,-78.4 h 596.7 c 0.08,6.14 -0.43,12.43 -1.7,18.71 -9.59,49.14 -57.17,81.2 -106.31,71.61"
         style="fill:#ffffff;fill-opacity:1;fill-rule:nonzero;stroke:none"
         id="path46" /><path
         d="m 3020.66,2798.37 c -171.01,-4.32 -317.18,-196.97 -313.69,-333.98 3.48,-137 338.79,-655.47 338.79,-655.47 94.65,237.4 308.56,537.11 305.16,671.74 -3.44,134.7 -159.2,322.05 -330.26,317.71"
         style="fill:#f14625;fill-opacity:1;fill-rule:nonzero;stroke:none"
         id="path48" /><path
         d="m 3020.96,2788.47 c -139.81,-3.54 -259.22,-161.02 -256.37,-272.95 2.79,-111.97 276.84,-535.68 276.84,-535.68 77.34,194 252.18,438.92 249.39,549 -2.79,110.06 -130.06,263.16 -269.86,259.63"
         style="fill:#f1ef1e;fill-opacity:1;fill-rule:nonzero;stroke:none"
         id="path50" /><path
         d="m 3020.9,2789.62 c -107.72,-2.71 -199.73,-124.08 -197.54,-210.33 2.17,-86.27 213.36,-412.77 213.36,-412.77 59.57,149.47 194.28,338.22 192.13,423.04 -2.13,84.81 -100.24,202.76 -207.95,200.06"
         style="fill:#ffffff;fill-opacity:1;fill-rule:nonzero;stroke:none"
         id="path52" /><path
         d="m 2891.09,2727.3 c -111.6,22.11 -234.53,-81.68 -252.24,-171.06 -17.68,-89.41 124.37,-474.65 124.37,-474.65 96.04,140.22 278.48,303.56 295.88,391.45 17.4,87.87 -56.39,232.15 -168.01,254.26"
         style="fill:#f14625;fill-opacity:1;fill-rule:nonzero;stroke:none"
         id="path54" /><path
         d="m 2889.8,2720.81 c -91.21,18.09 -191.66,-66.7 -206.11,-139.76 -14.49,-73.07 101.66,-387.95 101.66,-387.95 78.44,114.65 227.58,248.12 241.76,319.94 14.24,71.84 -46.09,189.75 -137.31,207.77"
         style="fill:#f1ef1e;fill-opacity:1;fill-rule:nonzero;stroke:none"
         id="path56" /><path
         d="m 2889.96,2721.55 c -70.29,13.97 -147.67,-51.38 -158.85,-107.69 -11.15,-56.29 78.32,-298.93 78.32,-298.93 60.49,88.3 175.41,191.18 186.35,246.53 10.96,55.33 -35.53,146.19 -105.82,160.09"
         style="fill:#ffffff;fill-opacity:1;fill-rule:nonzero;stroke:none"
         id="path58" /><path
         d="m 2942.19,2754.29 c -66.33,-28.75 -93.05,-127.4 -69.96,-180.47 23.06,-53.09 236.52,-203.03 236.52,-203.03 -0.53,107.95 35.76,259.22 13.09,311.43 -22.68,52.19 -113.34,100.9 -179.65,72.07"
         style="fill:#f14625;fill-opacity:1;fill-rule:nonzero;stroke:none"
         id="path60" /><path
         d="m 2943.81,2750.46 c -54.12,-23.51 -75.96,-104.1 -57.11,-147.52 18.83,-43.4 193.26,-165.92 193.26,-165.92 -0.37,88.25 29.22,211.86 10.7,254.55 -18.53,42.64 -92.63,82.41 -146.85,58.89"
         style="fill:#f1ef1e;fill-opacity:1;fill-rule:nonzero;stroke:none"
         id="path62" /><path
         d="m 2943.65,2750.93 c -41.74,-18.13 -58.55,-80.29 -44.06,-113.71 14.55,-33.42 148.96,-127.83 148.96,-127.83 -0.29,68 22.52,163.24 8.23,196.13 -14.28,32.87 -71.37,63.52 -113.13,45.41"
         style="fill:#ffffff;fill-opacity:1;fill-rule:nonzero;stroke:none"
         id="path64" /><path
         d="m 2592.17,3598.66 c 0,0 -210.72,-120.62 -314.83,-334.04 -132.14,-270.86 -167.01,-685.7 -115.62,-712.05 51.41,-26.41 113.51,173.11 217.19,290.08 171.42,193.46 319.31,181.93 319.31,181.93 l -106.05,574.08"
         style="fill:#c83622;fill-opacity:1;fill-rule:nonzero;stroke:none"
         id="path66" /><path
         d="m 3388.28,3598.66 c 0,0 210.68,-120.62 314.81,-334.04 132.12,-270.86 167.03,-685.7 115.64,-712.05 -51.41,-26.41 -113.53,173.11 -217.19,290.08 -171.44,193.46 -319.31,181.93 -319.31,181.93 l 106.05,574.08"
         style="fill:#a92421;fill-opacity:1;fill-rule:nonzero;stroke:none"
         id="path68" /><path
         d="m 3299.18,2688.08 c 23.63,73.16 182.25,588.75 182.25,1229.24 0,529.57 -305.86,830.09 -491.08,978.59 -185.17,-148.5 -491.05,-449.02 -491.05,-978.59 0,-640.49 158.61,-1156.08 182.22,-1229.24 h 617.66"
         style="fill:#282733;fill-opacity:1;fill-rule:nonzero;stroke:none"
         id="path70" /><path
         d="m 2368.67,4207.79 c 0,-810.84 200.82,-1292.29 230.71,-1384.93 h 781.97 c 29.9,92.64 230.7,574.09 230.7,1384.93 0,357.38 -110.04,693.94 -248.26,958.82 h -746.86 c -138.24,-264.88 -248.26,-601.44 -248.26,-958.82"
         style="fill:#f4f5f5;fill-opacity:1;fill-rule:nonzero;stroke:none"
         id="path72" /><path
         d="m 2990.35,5663.59 c -109.47,-87.84 -252.26,-264.87 -373.42,-496.98 h 746.86 c -121.15,232.11 -263.95,409.14 -373.44,496.98"
         style="fill:#c83622;fill-opacity:1;fill-rule:nonzero;stroke:none"
         id="path74" /><path
         d="M 3363.79,5166.61 H 2990.35 V 2822.86 h 391 c 29.9,92.64 230.7,574.09 230.7,1384.93 0,357.38 -110.04,693.94 -248.26,958.82"
         style="fill:#d3d4d3;fill-opacity:1;fill-rule:nonzero;stroke:none"
         id="path76" /><path
         d="m 2990.31,4815.6 c -147.89,0 -267.79,-119.9 -267.79,-267.82 0,-147.88 119.9,-267.81 267.79,-267.81 147.93,0 267.83,119.93 267.83,267.81 0,147.92 -119.9,267.82 -267.83,267.82"
         style="fill:#ade4f3;fill-opacity:1;fill-rule:nonzero;stroke:none"
         id="path78" /><path
         d="m 3205.62,4424.29 c -67.38,-118.87 -218.35,-160.63 -337.26,-93.24 -118.87,67.38 -160.63,218.38 -93.24,337.26 67.36,118.89 218.36,160.59 337.24,93.21 118.89,-67.35 160.63,-218.36 93.26,-337.23 m 61.04,-34.57 c 86.46,152.58 32.89,346.37 -119.71,432.85 -152.57,86.5 -346.38,32.93 -432.89,-119.69 -86.46,-152.59 -32.85,-346.36 119.71,-432.87 152.58,-86.48 346.39,-32.89 432.89,119.71"
         style="fill:#282733;fill-opacity:1;fill-rule:nonzero;stroke:none"
         id="path80" /><path
         d="m 2990.14,4298.83 c -41.34,0 -83.24,10.37 -121.78,32.22 -118.87,67.38 -160.63,218.38 -93.24,337.26 45.52,80.34 129.24,125.43 215.42,125.43 41.36,0 83.27,-10.37 121.82,-32.22 118.89,-67.35 160.63,-218.36 93.26,-337.23 -45.54,-80.34 -129.28,-125.46 -215.48,-125.46 m 0.63,462.22 c -44.75,0 -89.91,-13.59 -128.93,-41.82 -79.87,-57.81 -109.52,-159.22 -79.91,-248.03 0,0 76.21,96.02 145.39,146.06 67.13,48.59 195.06,100.33 195.06,100.33 -38.41,28.58 -84.78,43.46 -131.61,43.46"
         style="fill:#bfe6f0;fill-opacity:1;fill-rule:nonzero;stroke:none"
         id="path82" /><path
         d="m 2990.11,4275.88 c -45.16,0 -90.96,11.34 -133.06,35.21 -129.9,73.61 -175.53,238.59 -101.89,368.51 49.75,87.82 141.24,137.11 235.44,137.11 45.17,0 90.98,-11.34 133.07,-35.21 129.9,-73.62 175.53,-238.62 101.9,-368.52 -49.77,-87.8 -141.26,-137.1 -235.46,-137.1 m 0.43,517.86 c -86.18,0 -169.9,-45.09 -215.42,-125.43 -67.39,-118.88 -25.63,-269.88 93.24,-337.26 38.54,-21.85 80.44,-32.22 121.78,-32.22 86.2,0 169.94,45.12 215.48,125.46 67.37,118.87 25.63,269.88 -93.26,337.23 -38.55,21.85 -80.46,32.22 -121.82,32.22"
         style="fill:#5c5d6b;fill-opacity:1;fill-rule:nonzero;stroke:none"
         id="path84" /><path
         d="m 2781.93,4471.2 c -29.61,88.81 0.04,190.22 79.91,248.03 39.02,28.23 84.18,41.82 128.93,41.82 46.83,0 93.2,-14.88 131.61,-43.46 0,0 -127.93,-51.74 -195.06,-100.33 -69.18,-50.04 -145.39,-146.06 -145.39,-146.06"
         style="fill:#e0f4f9;fill-opacity:1;fill-rule:nonzero;stroke:none"
         id="path86" /><path
         d="m 2992.07,3503 h -0.39 c -52.75,0 -87.93,-81.72 -87.93,-191.35 0,-109.63 11.74,-761.48 87.93,-761.48 l 0.18,0.02 0.21,-0.02 c 76.17,0 87.89,651.85 87.89,761.48 0,109.63 -35.16,191.35 -87.89,191.35"
         style="fill:#c83622;fill-opacity:1;fill-rule:nonzero;stroke:none"
         id="path88" /><path
         d="m 2990.31,5166.61 h 373.48 c -121.15,232.11 -263.95,409.14 -373.44,496.98 l -0.04,-0.04 v -496.94"
         style="fill:#a92421;fill-opacity:1;fill-rule:nonzero;stroke:none"
         id="path90" /><path
         d="m 2992.07,3503 h -0.21 v -952.81 l 0.21,-0.02 c 76.17,0 87.89,651.85 87.89,761.48 0,109.63 -35.16,191.35 -87.89,191.35"
         style="fill:#a92421;fill-opacity:1;fill-rule:nonzero;stroke:none"
         id="path92" /></g></g></svg>
